/* XPM */
static char *bigger[] = {
/* columns rows colors chars-per-pixel */
"50 50 102 2 ",
"   c black",
".  c #020202",
"X  c #040404",
"o  c #050505",
"O  c #060606",
"+  c #080808",
"@  c #0A0A0A",
"#  c #0C0C0C",
"$  c #0D0D0D",
"%  c #0E0E0E",
"&  c #0D1D1F",
"*  c #101010",
"=  c #131313",
"-  c #141414",
";  c #161616",
":  c #171717",
">  c #1E1E1E",
",  c gray12",
"<  c #0D2427",
"1  c #1F2223",
"2  c #1D2728",
"3  c #1C2729",
"4  c #1B282A",
"5  c #1A292B",
"6  c #19292C",
"7  c #252525",
"8  c gray18",
"9  c #2F2F2F",
"0  c #203C3F",
"q  c gray20",
"w  c #363939",
"e  c gray24",
"r  c #1F3C40",
"t  c #1E4044",
"y  c #1E4348",
"u  c #1E464B",
"i  c #1E494F",
"p  c #1E4D53",
"a  c #1E5056",
"s  c #1E535A",
"d  c #3C4645",
"f  c #3F4B4B",
"g  c #20565D",
"h  c #235B62",
"j  c #245E65",
"k  c #266168",
"l  c #27646B",
"z  c #36686D",
"x  c #2B6A71",
"c  c #2D6C73",
"v  c gray26",
"b  c #444444",
"n  c #484848",
"m  c gray30",
"M  c #425050",
"N  c #445554",
"B  c #465A59",
"V  c #5D5D5D",
"C  c #486262",
"Z  c #486363",
"A  c #4C6867",
"S  c #527271",
"D  c #597F7D",
"F  c #646464",
"G  c #686868",
"H  c #717171",
"J  c #347A81",
"K  c #3C7B80",
"L  c #3C7B81",
"P  c #3B7C81",
"I  c #3A7D82",
"U  c #387F85",
"Y  c #378087",
"T  c #438488",
"R  c #478588",
"E  c #49888B",
"W  c #4E8C8F",
"Q  c #5C8583",
"!  c #5F8B8A",
"~  c #548F90",
"^  c #579191",
"/  c #5A9292",
"(  c #5C9493",
")  c #629290",
"_  c #629795",
"`  c #659896",
"'  c gray51",
"]  c #979797",
"[  c #A3A3A3",
"{  c gray67",
"}  c #B1B2B3",
"|  c #B2B2B2",
" . c #C5C5C5",
".. c gray78",
"X. c #CACBCC",
"o. c #D0D0D0",
"O. c #D7D7D7",
"+. c gray87",
"@. c #E2E2E2",
"#. c #F6F8F9",
"$. c #FCFEFF",
"%. c None",
/* pixels */
"%.%.%.%.%.%.%.%.%.%.%.%.%.%.%.%.%.%.%.                        %.%.%.%.%.%.%.%.%.%.%.%.%.%.%.%.%.%.%.",
"%.%.%.%.%.%.%.%.%.%.%.%.%.%.%.%.%.%.O % & < < < < < < < < & % O %.%.%.%.%.%.%.%.%.%.%.%.%.%.%.%.%.%.",
"%.%.%.%.%.%.%.%.%.%.%.%.%.%.%.%.%.  + , y s s s s s s s s y , +   %.%.%.%.%.%.%.%.%.%.%.%.%.%.%.%.%.",
"%.%.%.%.%.%.%.%.%.%.%.%.%.%.%.%.  : 3 p c J J J J J J J J c p 3 :   %.%.%.%.%.%.%.%.%.%.%.%.%.%.%.%.",
"%.%.%.%.%.%.%.%.%.%.%.%.%.%.%.O @ 4 0 k L T z z z z z z T L k 0 4 @ O %.%.%.%.%.%.%.%.%.%.%.%.%.%.%.",
"%.%.%.%.%.%.%.%.%.%.%.%.%.%.  # , i j Y ^ ! q q q q q q ! ^ Y j i , #   %.%.%.%.%.%.%.%.%.%.%.%.%.%.",
"%.%.%.%.%.%.%.%.%.%.%.%.%.  ; 5 u c P / C f %.= $ X.} %.f C / P c u 5 ;   %.%.%.%.%.%.%.%.%.%.%.%.%.",
"%.%.%.%.%.%.%.%.%.%.%.%.o O 2 0 h I R Q M q %.X X #.#.%.q M Q R I h 0 2 O o %.%.%.%.%.%.%.%.%.%.%.%.",
"%.%.%.%.%.%.%.%.%.%.%.  * , a l Y ( D q %.%.%.: : +.+.%.%.%.q D ( Y l a , *   %.%.%.%.%.%.%.%.%.%.%.",
"%.%.%.%.%.%.%.%.%.%.. = 6 t c K ~ Z N %.%.%.%.7 7 o.o.%.%.%.%.N Z ~ K c t 6 = . %.%.%.%.%.%.%.%.%.%.",
"%.%.%.%.%.%.%.%.%.. X 1 r g U E ) d q %.%.%.%.9 9  . .%.%.%.%.q d ) E U g r 1 X . %.%.%.%.%.%.%.%.%.",
"%.%.%.%.%.%.%.%.  = 1 s x Y _ S q %.%.%.%.%.%.v v { { %.%.%.%.%.%.q S _ Y x s 1 =   %.%.%.%.%.%.%.%.",
"%.%.%.%.%.%.%.o * 6 r x K W A B %.%.%.%.%.%.%.n n ] ] %.%.%.%.%.%.%.B A W K x r 6 * o %.%.%.%.%.%.%.",
"%.%.%.%.%.%.  O , t g Y W ` w q %.%.%.%.%.%.%.m m ' ' %.%.%.%.%.%.%.q w ` W Y g t , O   %.%.%.%.%.%.",
"%.%.%.%.%.  ; 2 a c U _ A w %.%.%.%.%.%.%.%.%.F F G G %.%.%.%.%.%.%.%.%.w A _ U c a 2 ;   %.%.%.%.%.",
"%.%.%.%.O # 5 0 l K E S B q %.%.%.%.%.%.%.%.%.H H V V %.%.%.%.%.%.%.%.%.q B S E K l 0 5 # O %.%.%.%.",
"%.%.%.  @ , u h Y ~ ) q %.%.%.%.%.%.%.%.%.%.%.' ' m m %.%.%.%.%.%.%.%.%.%.%.q ) ~ Y h u , @   %.%.%.",
"%.%.  : 4 i c I ( Z d %.%.%.%.%.%.%.%.%.%.%.%.[ [ b b %.%.%.%.%.%.%.%.%.%.%.%.d Z ( I c i 4 :   %.%.",
"%.O + 3 0 j P R D N q %.%.%.%.%.%.%.%.%.%.%.%.| | e e %.%.%.%.%.%.%.%.%.%.%.%.q N D R P j 0 3 + O %.",
"  % , p k Y / Q q %.%.%.%.%.%.%.%.%.%.%.%.%.%.....8 8 %.%.%.%.%.%.%.%.%.%.%.%.%.%.q Q / Y k p , %   ",
"  & y c L ^ C M %.%.%.%.%.%.%.%.%.%.%.%.%.%.%.O.O.> > %.%.%.%.%.%.%.%.%.%.%.%.%.%.%.M C ^ L c y &   ",
"  < s J T ! f q %.%.%.%.%.%.%.%.%.%.%.%.%.%.%.@.@.- - %.%.%.%.%.%.%.%.%.%.%.%.%.%.%.q f ! T J s <   ",
"  < s J z q %.%.%.%.%.%.%.%.%.%.%.%.%.%.%.%.%.$.$.    %.%.%.%.%.%.%.%.%.%.%.%.%.%.%.%.%.q z J s <   ",
"  < s J z q = X : 7 9 v n m F H ' [ | ..O.@.$.%.%.%.%.  - > 8 e b m V G ' ] {  .o.+.#.} q z J s <   ",
"  < s J z q $ X : 7 9 v n m F H ' [ | ..O.@.$.%.%.%.%.  - > 8 e b m V G ' ] {  .o.+.#.X.q z J s <   ",
"  < s J z q X.#.+.o. .{ ] ' G V m b e 8 > -   %.%.%.%.$.@.O...| [ ' H F m n v 9 7 : X $ q z J s <   ",
"  < s J z q } #.+.o. .{ ] ' G V m b e 8 > -   %.%.%.%.$.@.O...| [ ' H F m n v 9 7 : X = q z J s <   ",
"  < s J z q %.%.%.%.%.%.%.%.%.%.%.%.%.%.%.%.%.    $.$.%.%.%.%.%.%.%.%.%.%.%.%.%.%.%.%.%.q z J s <   ",
"  < s J T ! f q %.%.%.%.%.%.%.%.%.%.%.%.%.%.%.- - @.@.%.%.%.%.%.%.%.%.%.%.%.%.%.%.%.q f ! T J s <   ",
"  & y c L ^ C M %.%.%.%.%.%.%.%.%.%.%.%.%.%.%.> > O.O.%.%.%.%.%.%.%.%.%.%.%.%.%.%.%.M C ^ L c y &   ",
"  % , p k Y / Q q %.%.%.%.%.%.%.%.%.%.%.%.%.%.8 8 ....%.%.%.%.%.%.%.%.%.%.%.%.%.%.q Q / Y k p , %   ",
"%.O + 3 0 j P R D N q %.%.%.%.%.%.%.%.%.%.%.%.e e | | %.%.%.%.%.%.%.%.%.%.%.%.q N D R P j 0 3 + O %.",
"%.%.  : 4 i c I ( Z d %.%.%.%.%.%.%.%.%.%.%.%.b b [ [ %.%.%.%.%.%.%.%.%.%.%.%.d Z ( I c i 4 :   %.%.",
"%.%.%.  @ , u h Y ~ ) q %.%.%.%.%.%.%.%.%.%.%.m m ' ' %.%.%.%.%.%.%.%.%.%.%.q ) ~ Y h u , @   %.%.%.",
"%.%.%.%.O # 5 0 l K E S B q %.%.%.%.%.%.%.%.%.V V H H %.%.%.%.%.%.%.%.%.q B S E K l 0 5 # O %.%.%.%.",
"%.%.%.%.%.  ; 2 a c U _ A w %.%.%.%.%.%.%.%.%.G G F F %.%.%.%.%.%.%.%.%.w A _ U c a 2 ;   %.%.%.%.%.",
"%.%.%.%.%.%.  O , t g Y W ` w q %.%.%.%.%.%.%.' ' m m %.%.%.%.%.%.%.q w ` W Y g t , O   %.%.%.%.%.%.",
"%.%.%.%.%.%.%.o * 6 r x K W A B %.%.%.%.%.%.%.] ] n n %.%.%.%.%.%.%.B A W K x r 6 * o %.%.%.%.%.%.%.",
"%.%.%.%.%.%.%.%.  = 1 s x Y _ S q %.%.%.%.%.%.{ { v v %.%.%.%.%.%.q S _ Y x s 1 =   %.%.%.%.%.%.%.%.",
"%.%.%.%.%.%.%.%.%.. X 1 r g U E ) d q %.%.%.%. . .9 9 %.%.%.%.q d ) E U g r 1 X . %.%.%.%.%.%.%.%.%.",
"%.%.%.%.%.%.%.%.%.%.. = 6 t c K ~ Z N %.%.%.%.o.o.7 7 %.%.%.%.N Z ~ K c t 6 = . %.%.%.%.%.%.%.%.%.%.",
"%.%.%.%.%.%.%.%.%.%.%.  * , a l Y ( D q %.%.%.+.+.: : %.%.%.q D ( Y l a , *   %.%.%.%.%.%.%.%.%.%.%.",
"%.%.%.%.%.%.%.%.%.%.%.%.o O 2 0 h I R Q M q %.#.#.X X %.q M Q R I h 0 2 O o %.%.%.%.%.%.%.%.%.%.%.%.",
"%.%.%.%.%.%.%.%.%.%.%.%.%.  ; 5 u c P / C f %.} X.$ = %.f C / P c u 5 ;   %.%.%.%.%.%.%.%.%.%.%.%.%.",
"%.%.%.%.%.%.%.%.%.%.%.%.%.%.  # , i j Y ^ ! q q q q q q ! ^ Y j i , #   %.%.%.%.%.%.%.%.%.%.%.%.%.%.",
"%.%.%.%.%.%.%.%.%.%.%.%.%.%.%.O @ 4 0 k L T z z z z z z T L k 0 4 @ O %.%.%.%.%.%.%.%.%.%.%.%.%.%.%.",
"%.%.%.%.%.%.%.%.%.%.%.%.%.%.%.%.  : 3 p c J J J J J J J J c p 3 :   %.%.%.%.%.%.%.%.%.%.%.%.%.%.%.%.",
"%.%.%.%.%.%.%.%.%.%.%.%.%.%.%.%.%.  + , y s s s s s s s s y , +   %.%.%.%.%.%.%.%.%.%.%.%.%.%.%.%.%.",
"%.%.%.%.%.%.%.%.%.%.%.%.%.%.%.%.%.%.O % & < < < < < < < < & % O %.%.%.%.%.%.%.%.%.%.%.%.%.%.%.%.%.%.",
"%.%.%.%.%.%.%.%.%.%.%.%.%.%.%.%.%.%.%.                        %.%.%.%.%.%.%.%.%.%.%.%.%.%.%.%.%.%.%."
};
