/* XPM */
static const char *cursor[] = {
/* columns rows colors chars-per-pixel */
"50 50 13 1 ",
"  c #CEAF2F",
". c #CDB02F",
"X c #CEB02F",
"o c #CDAF31",
"O c #CEAF30",
"+ c #CDB030",
"@ c #CEB030",
"# c #CFB030",
"$ c #CEB130",
"% c #CEB031",
"& c #CEB131",
"* c #CFB131",
"= c None",
/* pixels */
"==================================================",
"==================================================",
"==================================================",
"==================================================",
"==================================================",
"==================================================",
"==========@=======================================",
"==========@@======================================",
"==========@==@====================================",
"==========@===@===================================",
"==========%====*@=================================",
"=================@================================",
"===========#======O@==============================",
"===========@========@=============================",
"===========@=========@============================",
"===========+===========@==========================",
"========================@=========================",
"============X=============@=======================",
"============@==============@======================",
"============@===============o@====================",
"============@=================@===================",
"===============================@@=================",
"=================================@================",
"=============@====================@===============",
"=============@======================@=============",
"=============@=======================@============",
"========================= @..@@@@@@@@@@@==========",
"==================================================",
"==============@===================================",
"==============@===================================",
"==============@=======@===========================",
"==============&=======@===========================",
"=====================@============================",
"===============$=====@============================",
"===============@==================================",
"===============@====@=============================",
"===============%==================================",
"===================@==============================",
"================#==O==============================",
"================@=+===============================",
"================@=@===============================",
"================#=================================",
"=================@================================",
"==================================================",
"==================================================",
"==================================================",
"==================================================",
"==================================================",
"==================================================",
"=================================================="
};
