/* XPM */
static const char * hud_overlay_charges[] = {
"213 53 2 1",
" 	c None",
".	c #FFFCCC",
"                                                                                                                                                                                                                     ",
"                                                                                                                                                                                                                     ",
"                                                                                                                                                                                                                     ",
"              ..................   ..........        .........     .............           .......................               ......................   ........................       .....................       ",
"             ...................   ..........        .........     .............           ........................             .......................   ........................       .....................       ",
"             ...................   ..........        .........     .............           .........................           ........................   ........................      ......................       ",
"            ....................   ..........        .........     ..............          ..........................         .........................   ........................     .......................       ",
"           .....................   ..........        .........     ..............          ...........................       ..........................   ........................     .......................       ",
"           .....................   ..........        .........    ...............          ............................     ...........................   ........................    ........................       ",
"          ......................   ..........        .........    ...............          ............................    ............................   ........................   .........................       ",
"         .......................   ..........       ..........    ................         ............................   .............................   ........................   .........................       ",
"         .......................   ..........       ..........    ................         ............................   .............................   ........................  ..........................       ",
"        ........................   ..........       ..........    ................         ............................   ............................    .......................   ..........................       ",
"        ..........                 ..........       ..........    ................         ..........         .........   ..........                      ..........                ..........                       ",
"        .........                  ..........       ..........    .................        ..........         .........   ..........                      ..........                .........                        ",
"        .........                  ..........       ..........   ..................        ..........         .........   ..........                      ..........                ..........                       ",
"        .........                  ..........       ..........   ..................        ..........         .........   ..........                      ..........                ..........                       ",
"        .........                  ..........       ..........   ..................        ..........         .........   ..........                      ..........                ............                     ",
"        ..........                 ...........................   ..................        ..........         .........   ..........    ................  ..........                .............                    ",
"        ..........                 ...........................   ...................       ..........         .........   ..........    ................  .....................     ...............                  ",
"        ..........                 ...........................   ...................       ............................   ..........    ................  .....................     .................                ",
"        ..........                 ...........................   ......... .........       ............................   ..........    ................  .....................     ..................               ",
"        ..........                 ...........................  .......... .........       ...........................    ..........    ................  .....................     ....................             ",
"        ..........                 ...........................  .......... ..........      ..........................     ..........    ................  .....................       ...................            ",
"        ..........                 ...........................  .......... ..........      ..........................     ..........    ................  .....................         ...................          ",
"        ..........                 ...........................  ..........  .........      .........................      ..........    ................  .....................           ...................        ",
"        ..........                 ...........................  .........   .........      ........................       ..........    ................  .....................            ...................       ",
"        ..........                 ...........................  .........   ..........     .......................        ..........     ...............  ....................               .................       ",
"        ..........                 ..........       ..........  .........   ..........     .......................        ..........         ...........  ...................                  ...............       ",
"        ..........                 ..........       .......... ..........    .........     .......................        ..........         ...........  .........                              .............       ",
"        ..........                 ..........       .......... ..........    .........     ..........  ...........        .........          ...........  .........                                ...........       ",
"        ..........                 ..........       .......... ..........    ..........    ..........   ...........       .........          ...........  .........                                 ..........       ",
"        ..........                 ..........       .......... ........................    ..........   ...........       .........          ...........  .........                                 ..........       ",
"        ..........                 ..........       .......... ........................    ..........    ..........       ..........         ...........  .........                                 ..........       ",
"        ..........                 ..........       .......... ........................    ..........    ...........      ...........       ............  ..........                                ..........       ",
"        ........................   ..........       .......... ........................    ..........    ...........      ..............................  ........................  ..........................       ",
"        ........................   ..........       ....................................   ..........     ..........      ..............................  ........................  ..........................       ",
"        ........................   ..........       ....................................   ..........     ..........       .............................  ........................  ..........................       ",
"         .......................   ..........       ....................................   ..........     ...........       ............................  ........................  .........................        ",
"          ......................   ..........       ....................................   ..........     ...........        ...........................  ........................  ........................         ",
"           .....................   ..........       .....................................  ..........      ..........        ...........................  ........................  .......................          ",
"            ....................   ..........       ...................        ..........  ..........      ...........        ..........................  ........................  ......................           ",
"             ...................   ..........       ...................        ..........  ..........      ...........         .........................  ........................  .....................            ",
"              ..................   ..........       ...................         .........  ..........       ..........         .........................  ........................  ....................             ",
"               .................   ..........       ...................         .......... ..........       ...........         .......................   ........................  ...................              ",
"                                                                                                                                                                                                                     ",
"                                                                                                                                                                                                                     ",
"                                                                                                                                                                                                                     ",
"                                                                                                                                                                                                                     ",
"                                                                                                                                                                                                                     ",
"                                                                                                                                                                                                                     ",
"                                                                                                                                                                                                                     ",
"                                                                                                                                                                                                                     "};
