/* XPM */
static const char *Enemy[] = {
/* columns rows colors chars-per-pixel */
"90 90 161 2 ",
"   c #7316A1",
".  c #761BA4",
"X  c #781EA6",
"o  c #771DA8",
"O  c #781FA9",
"+  c #7A21A7",
"@  c #7C24AA",
"#  c #7F28AB",
"$  c #7C26B2",
"%  c #7E28B4",
"&  c #7F2AB8",
"*  c #6B00FF",
"=  c #720CFF",
"-  c #812CAD",
";  c #8431AF",
":  c #812CB5",
">  c #812DBB",
",  c #8634B1",
"<  c #8837B2",
"1  c #8B3CB5",
"2  c #8432BC",
"3  c #8A3BBA",
"4  c #8E41B7",
"5  c #8F42B9",
"6  c #9145B9",
"7  c #954CBD",
"8  c #984FBF",
"9  c #9750BF",
"0  c #9850BF",
"q  c #8534C2",
"w  c #8837C6",
"e  c #8738C5",
"r  c #8839C7",
"t  c #8A3CCC",
"y  c #8C3FD1",
"u  c #8B36FE",
"i  c #8E3AFC",
"p  c #8D41CB",
"a  c #9146C2",
"s  c #954BC3",
"d  c #9349CD",
"f  c #9B54C1",
"g  c #9E5AC4",
"h  c #9B55CB",
"j  c #9E5AC9",
"k  c #8D42D4",
"l  c #8F45D8",
"z  c #9045D4",
"x  c #9349D3",
"c  c #9146D9",
"v  c #934CDC",
"b  c #9851D5",
"n  c #9E5BD4",
"m  c #9751DE",
"M  c #9A55DB",
"N  c #9E5CDC",
"B  c #A15EC6",
"V  c #A15FCE",
"C  c #A15FD3",
"Z  c #A15FDA",
"A  c #A260C7",
"S  c #A564C9",
"D  c #A768CB",
"F  c #AA6CCD",
"G  c #AC70CF",
"H  c #A262D7",
"J  c #A769D4",
"K  c #AA6DD4",
"L  c #A363DD",
"P  c #A86ADA",
"I  c #AE73D1",
"U  c #AE73DB",
"Y  c #B076D3",
"T  c #B37BD5",
"R  c #B076D9",
"E  c #B67FD9",
"W  c #954FE2",
"Q  c #9752E6",
"!  c #9955E5",
"~  c #9E5CE3",
"^  c #9955EA",
"/  c #9C59ED",
"(  c #9342FC",
")  c #9748FC",
"_  c #984AFB",
"`  c #9E5DF3",
"'  c #A05FE2",
"]  c #A05FE8",
"[  c #A05FF3",
"{  c #9F60F7",
"}  c #9F61F8",
"|  c #A464E5",
" . c #A96DE4",
".. c #A364ED",
"X. c #A668ED",
"o. c #A96DEE",
"O. c #AE74E5",
"+. c #AC72EB",
"@. c #B27BEC",
"#. c #A262F4",
"$. c #A66AF2",
"%. c #A86CF3",
"&. c #A366FE",
"*. c #A66AFE",
"=. c #A86EFE",
"-. c #AD73F3",
";. c #AB72FD",
":. c #AF78FE",
">. c #B37CF4",
",. c #B072FA",
"<. c #B27BFD",
"1. c #B780D7",
"2. c #B781D8",
"3. c #B984DA",
"4. c #BE8BDE",
"5. c #B681E4",
"6. c #B883E7",
"7. c #BD8AE3",
"8. c #B681EB",
"9. c #B986EB",
"0. c #BC8BEE",
"q. c #B681F1",
"w. c #BA85F5",
"e. c #BE8CF3",
"r. c #B682FD",
"t. c #B886FD",
"y. c #BC8BFE",
"u. c #BF90FE",
"i. c #C08FDF",
"p. c #C08FE0",
"a. c #C393E2",
"s. c #C699E5",
"d. c #C99DE7",
"f. c #C091EC",
"g. c #C699EC",
"h. c #CA9FE9",
"j. c #C18FFA",
"k. c #C293F4",
"l. c #C69AF5",
"z. c #C99EF4",
"x. c #C294FD",
"c. c #C699FE",
"v. c #C99EFB",
"b. c #CDA3EA",
"n. c #D0A7EC",
"m. c #D2ABEE",
"M. c #CDA4F3",
"N. c #CCA4FD",
"B. c #CFA8FD",
"V. c #D4AEF2",
"C. c #D2ABFC",
"Z. c #D6B2F2",
"A. c #D9B6F4",
"S. c #DBB9F6",
"D. c #D6B2FD",
"F. c #D9B6FC",
"G. c #DCBBFC",
"H. c #DFC0FC",
"J. c #E2C4FD",
"K. c #E7CCFF",
"L. c None",
/* pixels */
"L.L.L.L.L.L.L.L.L.L.L.L.L.L.L.L.L.L.L.L.L.L.L.L.L.L.L.L.L.L.L.L.L.L.L.L.L.L.L.L.L.L.L.L.L.L.L.L.L.L.L.L.L.L.L.L.L.L.L.L.L.L.L.L.L.L.L.L.L.L.L.L.L.L.L.L.L.L.L.L.L.L.L.L.L.L.L.L.L.L.",
"L.L.L.L.L.L.L.L.L.L.L.L.L.L.L.L.L.L.L.L.L.L.L.L.L.L.L.L.L.L.L.L.L.L.L.L.L.L.L.L.L.L.L.L.L.L.L.L.L.L.L.L.L.L.L.L.L.L.L.L.L.L.L.L.L.L.L.L.L.L.L.L.L.L.L.L.L.L.L.L.L.L.L.L.L.L.L.L.L.L.",
"L.L.L.L.L.L.L.L.L.L.L.L.L.L.L.L.L.L.L.L.L.L.L.L.L.L.L.L.L.L.L.L.L.L.L.L.L.L.L.L.L.L.L.L.L.L.L.L.L.L.L.L.L.L.L.L.L.L.L.L.L.L.L.L.L.L.L.L.L.L.L.L.L.L.L.L.L.L.L.L.L.L.L.L.L.L.L.L.L.L.",
"L.L.L.L.L.L.L.L.L.L.L.L.L.L.L.L.L.L.L.L.L.L.L.L.L.L.L.L.L.L.L.L.L.L.L.L.L.L.L.L.L.L.L.L.L.L.L.L.L.L.L.L.L.L.L.L.L.L.L.L.L.L.L.L.L.L.L.L.L.L.L.L.L.L.L.L.L.L.L.L.L.L.L.L.L.L.L.L.L.L.",
"L.L.L.L.L.L.L.L.L.L.L.L.L.L.L.L.L.L.L.L.L.L.L.L.L.L.L.L.L.L.L.L.L.L.L.L.L.L.L.L.L.L.L.L.L.L.L.L.L.L.L.L.L.L.L.L.L.L.L.L.L.L.L.L.L.L.L.L.L.L.L.L.L.L.L.L.L.L.L.L.L.L.L.L.L.L.L.L.L.L.",
"L.L.L.L.L.L.L.L.L.L.L.L.L.L.L.L.L.L.L.L.L.L.L.L.L.L.L.L.L.L.L.L.L.L.L.L.L.L.L.L.L.L.L.L.L.L.L.L.L.L.L.L.L.L.L.L.L.L.L.L.L.L.L.L.L.L.L.L.L.L.L.L.L.L.L.L.L.L.L.L.L.L.L.L.L.L.L.L.L.L.",
"L.L.L.L.L.L.L.L.L.L.L.L.L.L.L.L.L.L.L.L.L.L.L.L.L.L.L.L.L.L.L.L.L.L.L.L.L.L.L.L.L.L.L.L.L.L.L.L.L.L.L.L.L.L.L.L.L.L.L.L.L.L.L.L.L.L.L.L.L.L.L.L.L.L.L.L.L.L.L.L.L.L.L.L.L.L.L.L.L.L.",
"L.L.L.L.L.L.L.L.L.L.L.L.L.L.L.L.L.L.L.L.L.L.L.L.L.L.L.L.L.L.L.L.L.L.L.L.L.L.L.L.L.&.&.&.&.&.&.&.&.&.&.L.L.L.L.L.L.L.L.L.L.L.L.L.L.L.L.L.L.L.L.L.L.L.L.L.L.L.L.L.L.L.L.L.L.L.L.L.L.L.",
"L.L.L.L.L.L.L.L.L.L.L.L.L.L.L.L.L.L.L.L.L.L.L.L.L.L.L.L.L.L.L.L.L.L.&.&.&.&.&.&.&.&.&.&.&.&.&.&.&.&.&.&.&.&.&.&.L.L.L.L.L.L.L.L.L.L.L.L.L.L.L.L.L.L.L.L.L.L.L.L.L.L.L.L.L.L.L.L.L.L.",
"L.L.L.L.L.L.L.L.L.L.L.L.L.L.L.L.L.L.L.L.L.L.L.L.L.L.L.L.L.L.L.L.L.L.&.&.&.&.=.;.=.;.;.;.;.;.=.=.=.&.&.&.&.&.&.&.L.L.L.L.L.L.L.L.L.L.L.L.L.L.L.L.L.L.L.L.L.L.L.L.L.L.L.L.L.L.L.L.L.L.",
"L.L.L.L.L.L.L.L.L.L.L.L.L.L.L.L.L.L.L.L.L.L.L.L.L.L.L.L.L.L.&.&.&.&.&.&.=.<.x.v.N.C.D.D.D.N.N.x.t.=.&.&.&.&.&.&.&.&.&.&.L.L.L.L.L.L.L.L.L.L.L.L.L.L.L.L.L.L.L.L.L.L.L.L.L.L.L.L.L.L.",
"L.L.L.L.L.L.L.L.L.L.L.L.L.L.L.L.L.L.L.L.L.L.L.L.L.L.L.&.&.&.&.&.=.:.x.B.D.G.G.J.J.J.J.J.J.H.H.H.G.D.B.c.<.=.&.&.&.&.&.&.&.&.&.L.L.L.L.L.L.L.L.L.L.L.L.L.L.L.L.L.L.L.L.L.L.L.L.L.L.L.",
"L.L.L.L.L.L.L.L.L.L.L.L.L.L.L.L.L.L.L.L.L.L.L.L.L.L.&.&.&.&.=.<.y.c.D.J.J.K.K.K.K.K.K.K.K.K.K.K.K.K.H.D.v.y.<.;.&.&.&.&.&.&.&.&.L.L.L.L.L.L.L.L.L.L.L.L.L.L.L.L.L.L.L.L.L.L.L.L.L.L.",
"L.L.L.L.L.L.L.L.L.L.L.L.L.L.L.L.L.L.L.L.L.L.L.L.L.&.&.&.&.&.<.C.H.K.K.K.K.K.K.K.K.K.K.K.K.K.K.K.K.K.K.K.K.G.C.t.;.&.&.&.&.&.&.&.&.&.L.L.L.L.L.L.L.L.L.L.L.L.L.L.L.L.L.L.L.L.L.L.L.L.",
"L.L.L.L.L.L.L.L.L.L.L.L.L.L.L.L.L.L.L.L.L.L.L.&.&.&.&.&.r.N.J.K.K.K.K.K.K.K.K.K.K.K.K.J.G.D.B.l.u.B.F.D.K.K.K.J.C.y.=.&.&.&.&.&.&.&.&.L.L.L.L.L.L.L.L.L.L.L.L.L.L.L.L.L.L.L.L.L.L.L.",
"L.L.L.L.L.L.L.L.L.L.L.L.L.L.L.L.L.L.L.L.L.L.&.&.&.&.=.t.C.G.J.K.K.K.K.K.K.K.J.H.D.z.e.9.8.>.@.+.o.>.q.q.e.k.N.D.D.B.x.=.&.&.&.&.&.&.&.&.L.L.L.L.L.L.L.L.L.L.L.L.L.L.L.L.L.L.L.L.L.L.",
"L.L.L.L.L.L.L.L.L.L.L.L.L.L.L.L.L.L.L.L.L.&.&.&.&.=.<.N.J.J.K.K.K.K.K.K.K.H.F.M.9.o.! Q v v m Q Q Q Q Q ! ..-.u.B.D.D.:.=.&.&.&.&.&.&.&.&.L.L.L.L.L.L.L.L.L.L.L.L.L.L.L.L.L.L.L.L.L.",
"L.L.L.L.L.L.L.L.L.L.L.L.L.L.L.L.L.L.L.L.&.&.&.&.&.x.F.K.K.K.K.K.K.K.K.J.V.9.v l k k k l t r k k k k k k v Q Q ! / X.w.N.t.&.&.&.&.&.&.&.&.&.L.L.L.L.L.L.L.L.L.L.L.L.L.L.L.L.L.L.L.L.",
"L.L.L.L.L.L.L.L.L.L.L.L.L.L.L.L.L.L.&.&.&.&.&.&.t.C.J.K.K.K.K.K.K.J.C.O.Z b t r q q & & & & & q 2 e e r k k k v Q ! ] -.-.-.} &.&.&.&.&.&.&.&.&.L.L.L.L.L.L.L.L.L.L.L.L.L.L.L.L.L.L.",
"L.L.L.L.L.L.L.L.L.L.L.L.L.L.L.L.L.L.&.&.&.&.=.:.N.J.K.K.K.K.K.K.S.n.5.x r q & & % % $ $ % $ @ @ $ & & & 2 e r k l c W / #.$.{ &.&.&.&.&.&.&.&.&.L.L.L.L.L.L.L.L.L.L.L.L.L.L.L.L.L.L.",
"L.L.L.L.L.L.L.L.L.L.L.L.L.L.L.L.L.&.&.&.&.&.;.y.K.K.K.K.K.K.K.K.0.H q & % $ X X . . + + + X X X X X + . @ % & q r p k Q ! ^ / ` } &.&.&.&.&.&.&.;.L.L.L.L.L.L.L.L.L.L.L.L.L.L.L.L.L.",
"L.L.L.L.L.L.L.L.L.L.L.L.L.L.L.L.&.&.&.&.&.&.u.G.K.K.K.K.K.K.J.U s & @ @ + + @ @ @ # # # - - # - # , 5 0 F F J P U U  .L m v Q / ` { } } &.&.&.&.&.&.L.L.L.L.L.L.L.L.L.L.L.L.L.L.L.L.",
"L.L.L.L.L.L.L.L.L.L.L.L.L.L.L.&.&.&.&.&.&.<.N.J.K.K.K.K.K.A.a.a & @ + @ @ # # ; ; < < 1 4 4 9 B Y 2.4.4.b.b.b.b.M.b.n.g.0.9.@.+.X.` { } &.&.&.&.&.&.&.L.L.L.L.L.L.L.L.L.L.L.L.L.L.L.",
"L.L.L.L.L.L.L.L.L.L.L.L.L.L.&.&.&.&.&.&.&.c.F.K.K.K.K.K.J.s.h O + + @ % ; ; 1 1 1 5 5 6 9 0 1.s.S.J.J.K.J.K.J.K.K.K.K.K.K.J.B.0.8...{ &.&.&.&.&.&.&.&.&.L.L.L.L.L.L.L.L.L.L.L.L.L.L.",
"L.L.L.L.L.L.L.L.L.L.L.L.L.L.&.&.&.&.&.&.&.G.J.K.K.K.K.K.4.f o + @ # # < 4 4 4 7 9 9 g 1.m.K.K.K.V.Z.Z.Z.K.K.K.K.K.K.K.K.K.K.K.K.K.J.l.>.{ &.&.&.&.&.&.&.&.L.L.L.L.L.L.L.L.L.L.L.L.L.",
"L.L.L.L.L.L.L.L.L.L.L.L.L.&.&.&.&.&.&.=.<.J.J.K.K.K.K.H.0 , @ # # < 4 5 4 4 , ; - # - 6 S D G G Y Y Y G Y 1.3.a.n.S.K.K.K.K.K.K.K.K.G.B.c.=.=.} &.&.&.&.&.L.L.L.L.L.L.L.L.L.L.L.L.L.",
"L.L.L.L.L.L.L.L.L.L.L.L.&.&.&.&.&.&.&.;.y.J.K.K.K.K.S.d.; # - ; 4 4 5 4 < ; # + + + # , 7 7 7 0 B 0 9 9 6 7 0 S T 4.n.S.H.K.K.K.K.K.K.J.G.y.:.*.&.&.&.&.&.&.L.L.L.L.L.L.L.L.L.L.L.L.",
"L.L.L.L.L.L.L.L.L.L.L.&.&.&.&.&.&.&.#.>.N.K.K.K.K.K.m.0 ; - ; 1 5 5 1 @ .       X , 7 0 0 S g 0 0 6 < ; # # # + # , 4 T n.J.K.K.K.K.K.K.K.K.N.r.{ &.&.&.&.&.&.L.L.L.L.L.L.L.L.L.L.L.",
"L.L.L.L.L.L.L.L.L.L.L.&.&.&.&.&.&.&.&.>.G.J.K.K.K.J.a.- ; < 4 7 < # .     . < 0 S G Y Y Y F 9 ; + . . .   .     .   + # 1 f b.H.K.K.K.K.K.K.J.D.y.=.&.&.&.&.&.L.L.L.L.L.L.L.L.L.L.L.",
"L.L.L.L.L.L.L.L.L.L.L.&.&.&.&.&.&.&.#.>.J.K.K.K.K.b.Y - < 4 6 1 # +   . # < B G 1.3.2.1.F 6 , # # ; ; ; ; # +         . + ; D 4.m.J.K.K.K.K.K.H.B.<.=.&.&.&.&.L.L.L.L.L.L.L.L.L.L.L.",
"L.L.L.L.L.L.L.L.L.L.&.&.&.&.&.&.&.[ #.w.K.K.K.K.K.3.0 ; 4 6 7 - +     + 4 A 1.1.3.4.4.Y g X + - 6 0 9 9 0 5 ; . .           # 0 3.G.K.K.K.K.K.K.K.c.<.&.&.&.&.&.L.L.L.L.L.L.L.L.L.L.",
"L.L.L.L.L.L.L.L.L.L.&.&.&.&.&.&.&.` o.f.K.K.K.K.K.S 1 4 7 6 1         g I 3.4.4.i.i.F 0 < Y 4.a.s.4.4.4.3.2.2.G 9 ; .         + # 4 S.K.K.K.K.K.K.J.N.;.&.&.&.&.L.L.L.L.L.L.L.L.L.L.",
"L.L.L.L.L.L.L.L.L.L.&.&.&.&.&.&.{ { o.e.K.K.K.K.Z.S 4 6 9 4 #     + 4 I 2.4.4.s.a.4.G I 2.a.a.s.d.s.a.a.4.3.3.T F A 0 @ .     . . # D d.K.K.K.K.K.K.G.c.&.&.&.&.&.L.L.L.L.L.L.L.L.L.",
"L.L.L.L.L.L.L.L.L.L.&.&.&.&.&.&.{ / X.0.K.K.K.K.b.0 4 6 7 ; .   . # A 2.4.a.s.d.d.a.2.4.b.b.b.b.b.d.s.s.a.a.4.3.2.Y G 4 - .     . + 1 I Z.K.K.K.K.K.H.G.=.*.&.&.&.&.L.L.L.L.L.L.L.L.",
"L.L.L.L.L.L.L.L.&.&.&.&.&.&.&.#...^ | 9.K.K.K.J.4.0 7 0 5 ;     . 4 3.4.4.s.d.b.b.n.n.n.m.b.n.n.n.b.b.b.s.a.a.4.3.2.T F 7 ;         # 5 F K.K.K.K.K.K.J.y.;.&.&.&.&.L.L.L.L.L.L.L.L.",
"L.L.L.L.L.L.L.L.&.&.&.&.&.&.&.#.` Q H 3.K.K.K.J.1.A 0 0 < +     4 S 4.s.b.b.n.n.m.n.V.Z.Z.Z.Z.m.m.m.b.b.b.d.s.a.4.3.2.G D 0 @ .     + @ < b.S.K.K.K.K.K.F.t.&.&.&.&.L.L.L.L.L.L.L.L.",
"L.L.L.L.L.L.L.L.&.&.&.&.&.&.&.{ / Q N 6.K.K.K.H.G g 0 A # +     7 1.4.d.b.b.n.m.m.Z.Z.Z.A.A.Z.Z.Z.Z.m.n.b.b.d.a.i.4.2.Y G S 1 +     + + # F Z.K.K.K.K.K.K.y.&.&.&.&.L.L.L.L.L.L.L.L.",
"L.L.L.L.L.L.L.L.&.&.&.&.&.&.{ ` ` c N 6.K.K.K.H.S 0 0 A # .     g 3.d.b.b.b.m.m.Z.S.A.S.A.S.A.A.A.Z.Z.V.n.b.b.d.s.i.3.T G F 0 #     X + + , d.J.K.K.K.K.K.c.;.&.&.&.L.L.L.L.L.L.L.L.",
"L.L.L.L.L.L.L.L.&.&.&.&.&.&.` ` ! c p P K.K.K.J.F 0 0 F +   . + G a.d.n.m.m.A.A.A.S.B.N.u.y.M.V.S.S.A.A.Z.n.b.b.s.a.4.3.T G D 1 @ .   + # X J b.K.K.K.K.K.D.x.&.&.&.&.L.L.L.L.L.L.L.",
"L.L.L.L.L.L.L.L.&.&.&.&.&.&.` / Q l e n H.K.K.J.F A A F +     - I s.d.n.m.Z.A.A.M.>._ i u u ( _ >.V.A.A.A.m.n.b.d.a.1.3.T G F 6 #     + @ X a R K.K.K.K.K.G.N.&.&.=.&.L.L.L.L.L.L.L.",
"L.L.L.L.L.L.L.L.&.&.&.&.&.&.` / Q k q d n.J.K.J.Y S A F +   . ; Y s.b.n.V.Z.S.B.w.( = * * * * = ( w.M.A.A.Z.n.n.b.4.G 2.1.Y G 0 <     + # + : V J.K.K.K.K.J.B.&.=.&.&.L.L.L.L.L.L.L.",
"L.L.L.L.L.L.L.&.&.&.&.&.&.{ ` ^ W k q a 3.J.K.K.a.G S F # . . ; 1.b.n.m.Z.A.S.-.u * * * * * * * * i ,.S.A.A.m.m.b.1.0 Y 1.2.G A 5     + , o $ s Z.K.K.K.K.K.D.&.&.&.&.L.L.L.L.L.L.L.",
"L.L.L.L.L.L.L.&.&.&.&.&.} { ` / W k q 3 6 H.K.J.b.G S G ; +   + G b.n.m.Z.A.n.) = * * * * * * * * = _ C.S.A.Z.m.b.i.F 0 D E G F 7 . . @ , o + 3 7.J.K.K.K.K.G.:.=.&.&.L.L.L.L.L.L.L.",
"L.L.L.L.L.L.L.&.&.&.&.&.&.} ` / Q k d 5 ; Z.J.K.m.Y S G 5 #   . F b.n.Z.Z.Z.M.i * * * * * * * * * * i v.S.A.A.m.b.p.G < B 2.G F 6   . @ , X @ 3 U H.K.K.K.K.F.r.=.&.&.L.L.L.L.L.L.L.",
"L.L.L.L.L.L.L.&.&.&.&.&.&.&.` ^ W k n h + b.H.K.A.T S G f ,     S 4.m.Z.A.A.e.i * * * * * * * * * * u x.A.A.A.m.n.a.T + 0 2.G F 7   X # , + @ , n H.K.K.K.K.G.r.&.&.&.L.L.L.L.L.L.L.",
"L.L.L.L.L.L.L.&.&.&.&.&.&.&.` ^ m O.T g X 0 p.K.K.4.G G Y 8 X   6 I n.Z.Z.H.u.u * * * * * * * * * * u x.S.A.A.n.b.a.T . 6 F I F 7   # ; : + @ , p G.K.K.K.K.G.r.=.&.&.L.L.L.L.L.L.L.",
"L.L.L.L.L.L.L.&.&.&.&.&.&.&.` ^ ! 0.K 8 . 4 1.A.K.d.3.G T g 1   # 0 n.Z.Z.A.M.( * * * * * * * * * * i z.A.S.A.m.b.a.I X 1 D Y A 5   , , ; + + % p S.K.K.K.K.F.r.&.&.&.L.L.L.L.L.L.L.",
"L.L.L.L.L.L.L.&.&.&.&.&.&.#.` / ~ V.F 5 X - A d.K.m.a.G Y F 0 . + 4 4.Z.Z.H.m.) = * * * * * * * * = _ C.A.A.A.n.b.a.F X 1 S Y f 1 . 1 < ; + @ & t S.K.K.K.K.G.t.=.&.&.L.L.L.L.L.L.L.",
"L.L.L.L.L.L.L.&.&.&.&.&.&.&.#.^ ] J.2.s O - 1 B J.G.b.G Y 2.2.; . X f b.Z.A.S.<.( * * * * * * * * i <.S.A.Z.Z.n.b.i.7 . 1 D G 6 < # 5 1 ; . @ & y G.J.K.K.K.H.y.=.&.&.L.L.L.L.L.L.L.",
"L.L.L.L.L.L.L.&.&.&.&.&.&.#.` ` $.J.7.j X - , 6 3.V.A.a.T 2.2.G 1 - - G a.A.S.m.j.( = * * * * = ( j.C.S.A.Z.V.b.d.I -   1 D F 1 ; 6 5 < # X $ & y G.K.K.K.K.D.=.&.&.&.L.L.L.L.L.L.L.",
"L.L.L.L.L.L.L.&.&.&.&.&.&.&.` #.-.K.g.S . # , 1 B a.Z.m.2.E 2.3.D 7 - 7 G s.A.A.M.>.) i i u i _ <.C.S.S.A.V.n.b.i.D X   1 S B 1 1 7 4 < # . $ 2 k S.K.K.K.J.C.&.&.&.&.L.L.L.L.L.L.L.",
"L.L.L.L.L.L.L.L.&.&.&.&.&.&.` $.q.J.d.F o @ # , 6 G a.J.3.2.2.4.i.3.8 X 1 G Z.A.S.S.C.M.k.y.h.Z.H.S.S.A.V.m.n.b.Y 7     6 F 6 8 9 7 4 ; ; X & q x H.K.K.K.H.B.&.&.&.&.L.L.L.L.L.L.L.",
"L.L.L.L.L.L.L.L.&.&.&.&.&.&.[ X.>.K.S.3.$ X # , 6 0 S 4.m.a.E 3.i.i.3.i.Y 0 0 T d.S.S.S.A.S.S.S.A.A.A.Z.m.n.b.a.1 X   - 0 G A g 7 5 1 ; @ o & p | H.K.K.K.D.x.&.&.&.L.L.L.L.L.L.L.L.",
"L.L.L.L.L.L.L.L.&.&.&.&.&.&.#.%.w.K.J.a.& X # ; 1 7 0 F 4.4.2.2.E T B i.i.E E s.n.Z.A.Z.A.A.A.A.A.Z.V.m.n.d.i.B -     1 g F A 0 7 4 , # + $ q x O.H.K.K.K.B.t.&.&.&.L.L.L.L.L.L.L.L.",
"L.L.L.L.L.L.L.L.&.&.&.&.&.&.&.=.t.J.J.h.3 O @ - 1 6 0 g F Y 2.2.i.T 1 T i.h.b.m.V.Z.Z.Z.Z.A.Z.Z.V.m.n.n.b.i.Y - X     0 B D B f 7 4 , @ X $ q b 9.J.K.K.K.c.:.&.&.&.L.L.L.L.L.L.L.L.",
"L.L.L.L.L.L.L.L.&.&.&.&.&.&.&.=.y.K.K.V.J @ X @ < 4 6 0 B S F Y T T S , 0 i.b.h.n.m.m.m.m.m.m.m.n.n.b.b.a.B -     . + F F A g 7 4 < % + + & r n M.J.K.K.H.t.&.&.&.&.L.L.L.L.L.L.L.L.",
"L.L.L.L.L.L.L.L.L.L.&.&.&.&.&.=.<.K.K.J.n.2 @ X ; < 6 7 B B D G Y T T 1 1 1 D i.d.n.n.b.n.b.b.b.n.d.i.G 1 - .   . - 0 D A B 8 7 5 , @ @ @ q k  .J.K.K.J.v.<.&.&.&.&.L.L.L.L.L.L.L.L.",
"L.L.L.L.L.L.L.L.L.L.&.&.&.&.&.&.,.J.K.J.H.s : X - , 1 7 f B B D G Y T B 1 - < B G 1.3.i.a.a.i.i.1.Y B 6 X       - 1 S A B g 7 g 7 # + @ % r M 8.K.K.J.H.r.;.&.&.&.L.L.L.L.L.L.L.L.L.",
"L.L.L.L.L.L.L.L.L.L.&.&.&.&.&.&.,.J.K.K.K.K 6 + X - < 1 7 8 B B F I Y T B -   . - 6 8 A T T F g 6 - .         . 1 g D B g 8 8 F j + O & & k +.M.K.K.H.D.&.&.&.&.L.L.L.L.L.L.L.L.L.L.",
"L.L.L.L.L.L.L.L.L.L.&.&.&.&.&.&.=.C.H.K.K.A.K %   - - < 1 6 7 B B D G I Y Y 1 -     .   X . . .           . - B A A B 0 7 8 a.S 5 o % & y v l.J.K.J.N.:.&.&.&.&.L.L.L.L.L.L.L.L.L.L.",
"L.L.L.L.L.L.L.L.L.L.L.&.&.&.&.&.=.c.G.K.K.J.p.h o O - - < 1 7 B B B D G I Y B 7 1 - X               . X ; 1 8 S B B B 7 8 A V.B % + & w k +.D.K.K.C.y.=.&.&.&.L.L.L.L.L.L.L.L.L.L.L.",
"L.L.L.L.L.L.L.L.L.L.L.&.&.&.&.&.*.r.G.K.K.K.V.p.: O o - < < 1 8 7 B B B D G Y G A 4 - - X X X X X X - ; 8 B F A B g 7 6 B T S.6 O @ e p b l.G.J.J.x.:.&.&.&.&.L.L.L.L.L.L.L.L.L.L.L.",
"L.L.L.L.L.L.L.L.L.L.L.&.&.&.&.&.*.*.C.J.K.K.K.H.J < O o - - < 6 7 7 f B B B D D G G G F B B B g g S S S S S B 0 7 6 4 8 p.J.T 1 @ 2 t M +.K.K.G.y.=.&.&.&.&.&.L.L.L.L.L.L.L.L.L.L.L.",
"L.L.L.L.L.L.L.L.L.L.L.L.&.&.&.&.&.*.c.G.K.K.K.K.Z.R a O X - - < 1 1 7 7 B B B V S S F F S S S A A S A S 0 g 0 8 6 4 1 i.Z.S.a 2 2 e M 8.Z.K.C.u.;.&.&.&.&.&.L.L.L.L.L.L.L.L.L.L.L.L.",
"L.L.L.L.L.L.L.L.L.L.L.L.L.&.&.&.&.&.y.N.K.K.K.K.K.d.I 3 @ o @ # , 1 4 6 8 8 f g g A A A A A A A A B g g 7 7 7 6 6 8 D Z.A.n.2 2 r x @.z.G.D.u.:.&.&.&.&.&.L.L.L.L.L.L.L.L.L.L.L.L.L.",
"L.L.L.L.L.L.L.L.L.L.L.L.L.&.&.&.&.&.=.y.J.K.K.K.K.K.Z.K # @ o @ # ; < 1 1 5 7 8 9 f f 0 f 0 0 0 g 0 8 8 6 4 1 < 7 Y J.J.n.3.2 r x ~ D.G.D.<.=.&.&.&.&.&.&.L.L.L.L.L.L.L.L.L.L.L.L.L.",
"L.L.L.L.L.L.L.L.L.L.L.L.L.L.&.&.&.&.&.;.c.J.K.K.K.K.J.G.7.h - o @ @ @ , , < 1 4 4 5 6 5 6 6 6 6 6 4 4 1 1 < 1 F b.H.K.J.5.p r M O.D.v.w.=.&.&.&.&.&.&.&.L.L.L.L.L.L.L.L.L.L.L.L.L.L.",
"L.L.L.L.L.L.L.L.L.L.L.L.L.L.L.&.&.&.&.=.<.G.J.K.K.K.K.K.Z.a.I a & @ + @ # - ; , 1 1 1 1 1 1 1 1 1 1 < ; 4 g G d.J.J.K.f.L p c | @.x.r.;.&.&.&.&.&.&.&.L.L.L.L.L.L.L.L.L.L.L.L.L.L.L.",
"L.L.L.L.L.L.L.L.L.L.L.L.L.L.L.L.&.&.&.&.&.N.G.K.K.K.K.K.K.J.A.U 7 , @ + + + # # - ; ; , , ; ; ; ; ; ; ; g 3.m.K.K.J.J.| v k W +.>.$.&.&.&.&.&.&.&.&.&.L.L.L.L.L.L.L.L.L.L.L.L.L.L.L.",
"L.L.L.L.L.L.L.L.L.L.L.L.L.L.L.L.L.&.&.&.&.=.x.G.K.K.K.K.K.K.K.K.H.V.3.d 2 + X + X + + + + + + # ; g E m.K.K.K.K.K.C.O.M W Q ^ ` ` #.&.&.&.&.&.&.&.&.&.L.L.L.L.L.L.L.L.L.L.L.L.L.L.L.",
"L.L.L.L.L.L.L.L.L.L.L.L.L.L.L.L.L.L.&.&.&.&.<.y.H.J.K.K.K.K.K.K.J.J.S.b.g.a.Y F A g g g g T 3.4.d.m.A.J.K.K.K.K.M.8.~ ^ / / ` &.&.&.&.&.&.&.&.&.&.L.L.L.L.L.L.L.L.L.L.L.L.L.L.L.L.L.",
"L.L.L.L.L.L.L.L.L.L.L.L.L.L.L.L.L.L.&.&.&.&.&.;.N.G.J.K.K.K.K.K.K.K.K.K.J.J.Z.b.a.7.4.4.4.V.A.H.K.K.K.K.K.K.J.S.q.X.Q / ` ` ` &.&.&.&.&.&.&.&.&.&.L.L.L.L.L.L.L.L.L.L.L.L.L.L.L.L.L.",
"L.L.L.L.L.L.L.L.L.L.L.L.L.L.L.L.L.L.L.L.&.&.&.&.;.x.D.K.K.K.K.K.K.K.K.K.K.K.K.K.K.K.K.K.K.K.K.K.K.K.K.K.K.J.G.O./ / ` ` #.#.&.&.&.&.&.&.&.&.&.&.L.L.L.L.L.L.L.L.L.L.L.L.L.L.L.L.L.L.",
"L.L.L.L.L.L.L.L.L.L.L.L.L.L.L.L.L.L.L.L.L.&.&.&.&.=.:.u.H.J.K.K.K.K.K.K.K.K.K.K.K.K.K.K.K.K.K.K.K.K.K.K.D.u.-.{ { ] #.&.&.&.&.&.&.&.&.&.&.&.L.L.L.L.L.L.L.L.L.L.L.L.L.L.L.L.L.L.L.L.",
"L.L.L.L.L.L.L.L.L.L.L.L.L.L.L.L.L.L.L.L.L.L.&.&.&.&.=.;.c.B.G.J.K.K.K.K.K.K.K.K.K.K.K.K.K.K.K.K.K.G.F.N.w.-.#.&.[ #.&.&.&.&.&.&.&.&.&.&.&.&.L.L.L.L.L.L.L.L.L.L.L.L.L.L.L.L.L.L.L.L.",
"L.L.L.L.L.L.L.L.L.L.L.L.L.L.L.L.L.L.L.L.L.L.L.&.&.&.&.&.;.t.c.G.J.J.K.J.K.K.K.K.K.K.K.K.K.K.K.J.J.C.x.<.` #.#.&.&.&.&.&.&.&.&.&.&.&.&.L.L.L.L.L.L.L.L.L.L.L.L.L.L.L.L.L.L.L.L.L.L.L.",
"L.L.L.L.L.L.L.L.L.L.L.L.L.L.L.L.L.L.L.L.L.L.L.L.&.&.&.&.&.&.&.&.;.r.c.D.G.J.K.K.K.K.K.J.G.C.c.y.;.&.#.&.&.&.&.&.&.&.&.&.&.&.&.&.&.&.L.L.L.L.L.L.L.L.L.L.L.L.L.L.L.L.L.L.L.L.L.L.L.L.",
"L.L.L.L.L.L.L.L.L.L.L.L.L.L.L.L.L.L.L.L.L.L.L.L.L.L.&.&.&.&.&.&.=.;.:.<.t.t.y.y.y.y.y.y.t.r.<.;.=.&.&.&.&.&.&.&.&.&.&.&.&.&.&.&.L.L.L.L.L.L.L.L.L.L.L.L.L.L.L.L.L.L.L.L.L.L.L.L.L.L.",
"L.L.L.L.L.L.L.L.L.L.L.L.L.L.L.L.L.L.L.L.L.L.L.L.L.L.L.&.&.&.&.&.&.&.&.&.&.&.&.&.&.&.&.&.&.&.&.&.&.&.&.&.&.&.&.&.&.&.&.&.&.&.&.L.L.L.L.L.L.L.L.L.L.L.L.L.L.L.L.L.L.L.L.L.L.L.L.L.L.L.",
"L.L.L.L.L.L.L.L.L.L.L.L.L.L.L.L.L.L.L.L.L.L.L.L.L.L.L.L.L.L.&.&.&.&.=.&.&.&.&.&.&.&.&.&.&.&.&.&.&.&.&.&.&.&.&.&.&.&.&.&.L.L.L.L.L.L.L.L.L.L.L.L.L.L.L.L.L.L.L.L.L.L.L.L.L.L.L.L.L.L.",
"L.L.L.L.L.L.L.L.L.L.L.L.L.L.L.L.L.L.L.L.L.L.L.L.L.L.L.L.L.L.L.L.&.&.&.&.&.&.&.&.&.&.&.&.&.&.&.&.&.&.&.&.&.&.&.&.&.&.L.L.L.L.L.L.L.L.L.L.L.L.L.L.L.L.L.L.L.L.L.L.L.L.L.L.L.L.L.L.L.L.",
"L.L.L.L.L.L.L.L.L.L.L.L.L.L.L.L.L.L.L.L.L.L.L.L.L.L.L.L.L.L.L.L.L.&.&.&.&.&.&.&.=.&.&.&.&.&.&.&.&.&.&.&.&.&.&.&.&.L.L.L.L.L.L.L.L.L.L.L.L.L.L.L.L.L.L.L.L.L.L.L.L.L.L.L.L.L.L.L.L.L.",
"L.L.L.L.L.L.L.L.L.L.L.L.L.L.L.L.L.L.L.L.L.L.L.L.L.L.L.L.L.L.L.L.L.L.L.L.L.L.&.&.&.&.&.&.&.&.&.&.&.&.&.&.L.L.L.L.L.L.L.L.L.L.L.L.L.L.L.L.L.L.L.L.L.L.L.L.L.L.L.L.L.L.L.L.L.L.L.L.L.L.",
"L.L.L.L.L.L.L.L.L.L.L.L.L.L.L.L.L.L.L.L.L.L.L.L.L.L.L.L.L.L.L.L.L.L.L.L.L.L.L.L.L.L.L.L.L.L.L.L.L.L.L.L.L.L.L.L.L.L.L.L.L.L.L.L.L.L.L.L.L.L.L.L.L.L.L.L.L.L.L.L.L.L.L.L.L.L.L.L.L.L.",
"L.L.L.L.L.L.L.L.L.L.L.L.L.L.L.L.L.L.L.L.L.L.L.L.L.L.L.L.L.L.L.L.L.L.L.L.L.L.L.L.L.L.L.L.L.L.L.L.L.L.L.L.L.L.L.L.L.L.L.L.L.L.L.L.L.L.L.L.L.L.L.L.L.L.L.L.L.L.L.L.L.L.L.L.L.L.L.L.L.L.",
"L.L.L.L.L.L.L.L.L.L.L.L.L.L.L.L.L.L.L.L.L.L.L.L.L.L.L.L.L.L.L.L.L.L.L.L.L.L.L.L.L.L.L.L.L.L.L.L.L.L.L.L.L.L.L.L.L.L.L.L.L.L.L.L.L.L.L.L.L.L.L.L.L.L.L.L.L.L.L.L.L.L.L.L.L.L.L.L.L.L.",
"L.L.L.L.L.L.L.L.L.L.L.L.L.L.L.L.L.L.L.L.L.L.L.L.L.L.L.L.L.L.L.L.L.L.L.L.L.L.L.L.L.L.L.L.L.L.L.L.L.L.L.L.L.L.L.L.L.L.L.L.L.L.L.L.L.L.L.L.L.L.L.L.L.L.L.L.L.L.L.L.L.L.L.L.L.L.L.L.L.L.",
"L.L.L.L.L.L.L.L.L.L.L.L.L.L.L.L.L.L.L.L.L.L.L.L.L.L.L.L.L.L.L.L.L.L.L.L.L.L.L.L.L.L.L.L.L.L.L.L.L.L.L.L.L.L.L.L.L.L.L.L.L.L.L.L.L.L.L.L.L.L.L.L.L.L.L.L.L.L.L.L.L.L.L.L.L.L.L.L.L.L.",
"L.L.L.L.L.L.L.L.L.L.L.L.L.L.L.L.L.L.L.L.L.L.L.L.L.L.L.L.L.L.L.L.L.L.L.L.L.L.L.L.L.L.L.L.L.L.L.L.L.L.L.L.L.L.L.L.L.L.L.L.L.L.L.L.L.L.L.L.L.L.L.L.L.L.L.L.L.L.L.L.L.L.L.L.L.L.L.L.L.L.",
"L.L.L.L.L.L.L.L.L.L.L.L.L.L.L.L.L.L.L.L.L.L.L.L.L.L.L.L.L.L.L.L.L.L.L.L.L.L.L.L.L.L.L.L.L.L.L.L.L.L.L.L.L.L.L.L.L.L.L.L.L.L.L.L.L.L.L.L.L.L.L.L.L.L.L.L.L.L.L.L.L.L.L.L.L.L.L.L.L.L."
};
