/* XPM */
static const char *Spells_Effect_2[] = {
/* columns rows colors chars-per-pixel */
"64 64 218 2 ",
"   c #744B1C",
".  c #764D19",
"X  c #7B531C",
"o  c #7F581E",
"O  c #764E22",
"+  c #795225",
"@  c #7C562A",
"#  c #7E592D",
"$  c #775024",
"%  c #7D6021",
"&  c #7F641B",
"*  c #80591F",
"=  c #85701E",
"-  c #815C2D",
";  c #825C20",
":  c #825E31",
">  c #886529",
",  c #916D27",
"<  c #887326",
"1  c #9D7B2F",
"2  c #96732D",
"3  c #856235",
"4  c #8C6C34",
"5  c #896639",
"6  c #8C6B3C",
"7  c #876438",
"8  c #95783A",
"9  c #8F6F3C",
"0  c #A07E31",
"q  c #8E6D41",
"w  c #906F43",
"e  c #8F7146",
"r  c #927245",
"t  c #95764A",
"y  c #96794C",
"u  c #997B4E",
"i  c #977B45",
"p  c #9B7E51",
"a  c #9B9D16",
"s  c #9D9E1C",
"d  c #97941B",
"f  c #90851B",
"g  c #9DA116",
"h  c #9EA11B",
"j  c #A0A31E",
"k  c #978B2B",
"l  c #9D9C24",
"z  c #9F9C2B",
"x  c #9C942B",
"c  c #988638",
"v  c #9F9533",
"b  c #A09F2A",
"n  c #AC8C3A",
"m  c #A68536",
"M  c #A29A3B",
"N  c #B4953D",
"B  c #9FA121",
"V  c #A1A224",
"C  c #A2A32B",
"Z  c #A4A233",
"A  c #A6A13B",
"S  c #A8A43D",
"D  c #AAAA3B",
"F  c #A8A835",
"G  c #ED8E2F",
"H  c #ED9136",
"J  c #ED943B",
"K  c #9D8647",
"L  c #9E8154",
"P  c #9F865A",
"I  c #A99C4D",
"U  c #A69A47",
"Y  c #B69844",
"T  c #A28659",
"R  c #A58B5C",
"E  c #A38958",
"W  c #A9935C",
"Q  c #A99857",
"!  c #B39755",
"~  c #A48648",
"^  c #AAA543",
"/  c #ACA944",
"(  c #ADA54D",
")  c #B9A745",
"_  c #AFA15B",
"`  c #B4A659",
"'  c #B8B45B",
"]  c #B4B155",
"[  c #B2B04C",
"{  c #A78E61",
"}  c #AC9464",
"|  c #AE9A63",
" . c #AD966A",
".. c #AE996C",
"X. c #B29C6C",
"o. c #B19B65",
"O. c #B39E72",
"+. c #B3A463",
"@. c #B5A46B",
"#. c #B9AA69",
"$. c #BCB564",
"%. c #BDB667",
"&. c #B6A173",
"*. c #B9A574",
"=. c #BCAA74",
"-. c #BCA97C",
";. c #BAA77B",
":. c #BEB172",
">. c #EE9842",
",. c #C4A846",
"<. c #D2B74D",
"1. c #C3A954",
"2. c #CAB15A",
"3. c #D6BD57",
"4. c #CCB149",
"5. c #EFA95B",
"6. c #CEB869",
"7. c #C1AE7E",
"8. c #C2AE74",
"9. c #C2B37B",
"0. c #C6BD7B",
"q. c #C4BA78",
"w. c #CBB670",
"e. c #EFAD62",
"r. c #F0BD7B",
"t. c #EFB168",
"y. c #DCC354",
"u. c #DDC55A",
"i. c #E4CC57",
"p. c #ECD55C",
"a. c #ECD55C",
"s. c #F1DA5E",
"d. c #DEC869",
"f. c #C8C376",
"g. c #DBC778",
"h. c #E2CD67",
"j. c #EBD666",
"k. c #F4DE61",
"l. c #E1CE76",
"z. c #EAD778",
"x. c #F1DE75",
"c. c #F6E163",
"v. c #FAE564",
"b. c #FEEA66",
"n. c #FAE66B",
"m. c #FEEA6B",
"M. c #F7E46D",
"N. c #FEEC74",
"B. c #FEED7B",
"V. c #F6E476",
"C. c #BEAC81",
"Z. c #C2AF81",
"A. c #C4B383",
"S. c #CBBB8C",
"D. c #C8B988",
"F. c #CCBD90",
"G. c #D0BF86",
"H. c #CCC284",
"J. c #CEC489",
"K. c #D2C38B",
"L. c #D7C786",
"P. c #CFC193",
"I. c #D2C393",
"U. c #D5CA94",
"Y. c #D4C699",
"T. c #D6C99B",
"R. c #D9CD9C",
"E. c #DBCC91",
"W. c #DCD39A",
"Q. c #DFD08F",
"!. c #F0C182",
"~. c #F1C78A",
"^. c #E9D885",
"/. c #F0CE93",
"(. c #E7DA98",
"). c #F1D39B",
"_. c #FEEE83",
"`. c #FCED8B",
"'. c #F3E387",
"]. c #FEF08C",
"[. c #EFE194",
"{. c #F7EA96",
"}. c #FEF193",
"|. c #FEF39C",
" X c #DED2A3",
".X c #DBCFA1",
"XX c #E1D6A5",
"oX c #E3D9A4",
"OX c #E5DBAC",
"+X c #E8DFAF",
"@X c #E5DAA6",
"#X c #EDDBA8",
"$X c #EDE2AC",
"%X c #E9E1AA",
"&X c #F6EBA3",
"*X c #F0E1AD",
"=X c #F4EAA8",
"-X c #FEF4A5",
";X c #FEF5AC",
":X c #ECE3B4",
">X c #EEE7B9",
",X c #EFE8B9",
"<X c #EFE8B7",
"1X c #F0E4B2",
"2X c #F4ECB4",
"3X c #F1EBBB",
"4X c #FCF5B3",
"5X c #FFF8B6",
"6X c #F7F1BD",
"7X c #FBF5BB",
"8X c #FFF9BC",
"9X c #F4EFC0",
"0X c #F7F2C2",
"qX c #FAF5C5",
"wX c #FEFAC4",
"eX c #FFFBCB",
"rX c #FBF7C8",
"tX c None",
/* pixels */
"tXtXtXtXtXtXtXtXtXtXtXtXtXtXtXtXtXtXtXtXtXtXtXtXtXtXtXtXtXtXtXtXtXtXtXtXtXtXtXtXtXtXtXtXtXtXtXtXtXtXtXtXtXtXtXtXtXtXtXtXtXtXtXtX",
"tXtXtXtXtXtXtXtXtXtXtXtXtXtXtXtXtXtXtXtXtXtXtXtXtXtXb.b.b.b.b.b.b.b.b.b.b.b.tXtXtXtXtXtXtXtXtXtXtXtXtXtXtXtXtXtXtXtXtXtXtXtXtXtX",
"tXtXtXtXtXtXtXtXtXtXtXtXtXtXtXtXtXtXtXtXtXtXtXb.b.m.m.N.N.B.B.B.N.N.m.b.b.b.b.b.b.tXtXtXtXtXtXtXtXtXtXtXtXtXtXtXtXtXtXtXtXtXtXtX",
"tXtXtXtXtXtXtXtXtXtXtXtXtXtXtXtXtXtXtXtXtXb.m.m.N._.}.|.-X;X5X;X-X|.]._.N.N.b.b.b.b.b.tXtXtXtXtXtXtXtXtXtXtXtXtXtXtXtXtXtXtXtXtX",
"tXtXtXtXtXtXtXtXtXtXtXtXtXtXtXtXtXtXtXb.m.m.B.}.;X8XwXwXwXwXwXwXwXwXwX5X;X].B.N.b.b.b.b.b.b.tXtXtXtXtXtXtXtXtXtXtXtXtXtXtXtXtXtX",
"tXtXtXtXtXtXtXtXtXtXtXtXtXtXtXtXtXb.b.m.B.|.8XwXeXeXeXeXeXeXeXeXeXeXwXeXwX8X5X}.B.m.b.b.b.b.b.tXtXtXtXtXtXtXtXtXtXtXtXtXtXtXtXtX",
"tXtXtXtXtXtXtXtXtXtXtXtXtXtXtXb.b.m.m.].4X8XeXeXeXeXeXeXeXwXwX6X4X=X;X2X4XwXwX8X-X`.m.b.b.b.b.b.b.tXtXtXtXtXtXtXtXtXtXtXtXtXtXtX",
"tXtXtXtXtXtXtXtXtXtXtXtXtXb.b.b.m.N.}.5XeXeXeXeXeXeXwX6X=X(.^.g.g.d.d.l.l.^.[.|.;X;X}.N.m.b.b.b.b.b.b.tXtXtXtXtXtXtXtXtXtXtXtXtX",
"tXtXtXtXtXtXtXtXtXtXtXtXb.b.b.b.B.|.5XeXeXeXeXeXrX2X(.g.6.1.,.) ) ,.,.,.4.<.y.h.z.'.{.`.n.b.b.b.b.b.b.b.tXtXtXtXtXtXtXtXtXtXtXtX",
"tXtXtXtXtXtXtXtXtXtXtXtXb.b.b.N.}.8XeXeXeXeXeX0X@X0.1.n m 0 1 1 1 1 m m n N N 4.3.u.z.'.M.v.v.m.b.b.b.b.tXtXtXtXtXtXtXtXtXtXtXtX",
"tXtXtXtXtXtXtXtXtXtXb.b.b.b.m.].5XeXeXeXeXeX%XG.! 1 , > ; * X . X . X * > , 1 c N ,.<.y.p.s.c.b.b.b.b.b.b.b.tXtXtXtXtXtXtXtXtXtX",
"tXtXtXtXtXtXtXtXtXtXb.b.b.b._.;XeXeXeXeXeX:X8.c > * .   . . O O   . . . - w i K Y ` 1.2.<.i.a.c.v.b.b.b.b.b.tXtXtXtXtXtXtXtXtXtX",
"tXtXtXtXtXtXtXtXtXb.b.b.b.N.|.wXeXeXeXrXOX@.4 . .     $ @ # # # 5 u  .;.C.F.Y.Y.Y.R.E.E.L.l.h.j.k.v.m.b.b.b.b.tXtXtXtXtXtXtXtXtX",
"tXtXtXtXtXtXtXtXb.b.b.b.b._.5XeXeXeXeX:XX.3     X - : : 5 q u } C.T.+X,X9XqXrXrXrXrXeXrX7X=X[.^.x.c.v.v.b.b.b.b.tXtXtXtXtXtXtXtX",
"tXtXtXtXtXtXtXtXb.b.b.b.n.|.wXeXeXeX3XZ.3   + - : 6 9 9 8 K o.I.%X:X X.X X+X>X,X3XrXeXeXeXeXrX7X&X'.M.v.b.b.b.b.b.tXtXtXtXtXtXtX",
"tXtXtXtXtXtXtXb.b.b.b.v.B.;XwXeXeX0XY.r O + : 5 8 8 k b l l S ] ` _ | W { W W @.D.W.>X0XeXeXeXeXeX7X{.B.m.b.b.b.b.tXtXtXtXtXtXtX",
"tXtXtXtXtXtXb.b.b.b.b.v.`.4XeXeXeX:X .@ @ 3 9 c k s l b b U ( _ Q I I M n x x b v I @.P.,XrXeXeXeXeXwX-XB.m.b.b.b.b.tXtXtXtXtXtX",
"tXtXtXtXtXtXb.b.b.b.v.k.{.wXeXeXqXY.q # 7 e k l s B Z ( @.=.*.#.` U b C B s b g h a z v +.T.3XwXeXeXeXwX;X_.m.b.b.b.tXtXtXtXtXtX",
"tXtXtXtXtXb.b.b.b.b.c.k.&XeXeXeX,X..7 7 9 c l a V ^ _ 8.7.Z.8.#.^ D / / / ^ A C B h g a x I C.>XrXeXeXeXwX;XB.m.b.b.b.tXtXtXtXtX",
"tXtXtXtXtXb.b.b.b.v.k.j.=XeXeXeXOXy 7 e c x a s ^ #.7.D.D.D.%.] $.q.A.0.9.:.=.+.( M B h g d c *.OXeXeXeXeXwX|.N.b.b.b.tXtXtXtXtX",
"tXtXtXtXtXb.b.b.b.c.a.h.1XeXeX0XY.q q K v h h A #.D.S.F.I.H.q.G.I.T.T.I.F.S.D.7.&.+.U B h a d 2 ..:XeXeXeXeX8X}.m.b.b.b.tXtXtXtX",
"tXtXtXtXb.b.b.b.b.k.i.d.$XeXeX>XC.e e K l g B ` A.S.I.T.R.U.E.XX X X XR.R.I.F.D.C.=...I b g a f 4 C.,XeXeXeXeX4X_.m.b.b.tXtXtXtX",
"tXtXtXtXb.b.b.b.c.s.y.3.%XeXeX:X;.t K v h h [ :.F.Y.R..X XOXOXOXOXOXOXXX XR.Y.J.S.-.;...I b g d = 6 D.9XeXeXeXeX|.N.b.b.tXtXtXtX",
"tXtXtXtXb.b.b.b.c.p.y.2.%XeXeX+X..u K x h B $.S.Y.R. XOX+X%X:X:X:X:X+X+XOX X.XY.P.D.-.&.W M s a f % P  XeXeXeXeX5XN.b.b.tXtXtXtX",
"tXtXtXtXb.b.b.b.s.p.4.1.XXeXeX X .L K B g B :.I.T. XOX:X:X>X1X+X$X1X>X:X+XOXXXR.I.S.A.;.X.Q b a d o - A.0XeXeXeX8X].m.b.tXtXtXtX",
"tXtXtXtXb.b.b.v.s.i.,.N Y.qXeXOX .P { B g F H.T. XOX+X:X*X).~.r.!.~.).:X>X+XXXXXR.P.A.7.&.W M h a = O E OXeXeXeXwX-XN.b.b.tXtXtX",
"tXtXtXb.b.b.b.v.a.i.,.m A.9XeXOX&.R W B h F H..XXXOX:X$X~.e.>.J J >.t.).1X:X+XOX.XJ.q.-.*.| U l a = O - F.rXeXeXwX;XB.b.b.tXtXtX",
"tXtXtXb.b.b.b.v.a.y.) 0 { .XrX>XD.{ | Z h F J. XOX:X>X/.5.H G G G G J 5.).>X+XOX XJ.$.:.*.X.R b a <   X ;.>XeXeXeX8XB.m.b.tXtXtX",
"tXtXtXb.b.b.b.c.a.3.,.0 r F.qX9XP.} | A g C J. XOX:X*X!.J G G G G G G >.~.<X:XOX XU.%.] *.@.{ z a < O . W (.eXeXeX8X].m.b.tXtXtX",
"tXtXtXb.b.b.b.v.a.3.,.! t O.:X0X X . .( V V f.W.OX:X#Xr.H G G G G G G J !.1X:X+X XU.$.( =.&.{ z d < O . K E.eXeXeX8X].m.b.tXtXtX",
"tXtXtXb.b.b.b.c.a.y.3.8.t e F.qX:X&.O.+.Z V ' Q.OX:X*Xr.H G G G G G G J !.1X:X+X XU.$./ @.X.W z k > O . 1 F.eXeXeXwX].m.b.tXtXtX",
"tXtXtXb.b.b.b.v.a.y.L.8.q @ O.9X,XD.&.*.( C D H.OX:X1Xr.J G G G G G G >.~.<X:X+X XU.' S +.X.I x k 3 O . 2 H.eXeXeX8X].m.b.tXtXtX",
"tXtXtXb.b.b.b.v.j.u.@XJ.5 O q F.,XXX-.*.:./ V ' U.:X<X).5.H G G G G H e.).,X1XOXXXJ.[ S ` o.U k 8 # O X 2 K.eXeXeX8X].m.b.tXtXtX",
"tXtXtXb.b.b.b.v.s.i.=XE.t O # { T.:XS.-.A.%./ D f.(.:X$X~.5.J H H J e./.1X,X+XOXR.H.Z C _ | U c 4 #   X 0 K.wXeXeX8X_.b.b.tXtXtX",
"tXtXtXb.b.b.b.v.s.j.2XoXL   + q ...XXXA.-.A.:.] [ f.W.<X$X).!.r.r.~.).*X:X:XOXXXU.$.V Z _ Q c i 4 @   + m K.eXeXeX5XB.b.b.tXtXtX",
"tXtXtXtXb.b.b.v.k.x.2X>X... O 3 t ;.T.I.A.A.G.q.%.$.f.Q.+X>X:X:X*X1X3X<X:XOXXXR.0.D j A o.W ~ t 7 $ . > Y Q.eXeXeX-XN.b.tXtXtXtX",
"tXtXtXtXb.b.b.b.c.x.4X0X-.+   - 6 p ;.S.A.7.9.q.H.H.H.U.%X:X>X>X>X:X:X:XOXXX.XJ.] j V ^ | T p q : O . , ` ).eXeXwX}.m.b.tXtXtXtX",
"tXtXtXtXb.b.b.b.n.V.7XeXK.6 . @ 7 r p  .&.;.7.#.%.H.W. X XOXOX%X+X+XOXXXXXR.G.] V g M Q { P r 7 @   * 0 6.$XeXeX5XB.m.b.tXtXtXtX",
"tXtXtXtXb.b.b.b.v.V.4XeXXXW . O - q u T  .O.-.=.] ' f.U. X X X XXXXXXX XU.0.] V g V I } T p e : O   > n L.7XeXwX-XN.b.b.tXtXtXtX",
"tXtXtXtXb.b.b.b.v.M.4XeX0XS.>   + 3 w p R } @.=.+.S / $.f.J.U.U.U.I.J.H.$.D B h B U W R p u p :   X 1 ) %XwXwX5X_.m.b.b.tXtXtXtX",
"tXtXtXtXtXb.b.b.b.b.;XeXeXXXR X O - 5 r p R  .O.*.` S C F [ ' 6.$.' [ F V g g V M Q R L u { { # . , n f.2XeX8X|.m.m.b.tXtXtXtXtX",
"tXtXtXtXtXb.b.b.b.m.{.8XeX6XK.4   O : 6 t p R } X.X.+.A C V V C C V j g g V b U Q R L y { A.P $ o 0 1.(.wXwX-XB.b.b.b.tXtXtXtXtX",
"tXtXtXtXtXtXb.b.b.m._.4XeXeX<X=.3 . O - 6 r p T W  .X.X.Q S C V V V V V b I ! { T L t p Z.T.r * , Y g.2XeX;X_.m.b.b.tXtXtXtXtXtX",
"tXtXtXtXtXtXb.b.b.b.N.;XeXeXrXXXW -   + : 6 r u T R { | X.o.W _ I I I Q Q R R p u r t O. XZ.6 , n 6.=XwX5X].m.b.b.b.tXtXtXtXtXtX",
"tXtXtXtXtXtXtXb.b.b.m.}.8XeXeXrX#XW ; . O - : q t u L T R { { { } W W R T p p t w w X. XOXR 4 n 2.@X8X;X_.N.b.b.b.tXtXtXtXtXtXtX",
"tXtXtXtXtXtXtXb.b.b.b.N.;XeXeXeXrXXX| 3   O - : 5 q r y p L L L T p p p y t q 6 r O.OX>XI.~ m 2.(.4X-X_.m.b.b.b.b.tXtXtXtXtXtXtX",
"tXtXtXtXtXtXtXtXb.b.b.m.].5XeXeXeX0X@X*.5 *   O @ : 7 6 6 e t t r t w w 6 5 3 y -.OXrX:X+.Y 2.(.{.{.V.b.b.b.b.b.tXtXtXtXtXtXtXtX",
"tXtXtXtXtXtXtXtXtXb.b.m.N.|.wXeXeXeXrX1XF.} : X   O + # # : # 3 : : : : : w  .Y.3XrX3XL.Y 4.l.'.'.b.v.b.b.b.b.tXtXtXtXtXtXtXtXtX",
"tXtXtXtXtXtXtXtXtXtXb.b.m.B.-XwXeXeXeXeX6X@XD. .r +       O O O O O # e  .S.OX0XeX6XE.2.4.y.j.c.c.v.b.b.b.b.b.tXtXtXtXtXtXtXtXtX",
"tXtXtXtXtXtXtXtXtXtXb.b.b.m.B.;XwXeXeXeXeXeX0X>XR.D.-.{ P p u L  .C.S.Y.+XqXeXeX6X(.3.3.i.j.k.v.b.b.b.b.b.b.tXtXtXtXtXtXtXtXtXtX",
"tXtXtXtXtXtXtXtXtXtXtXb.b.b.m._.-XwXeXeXeXeXeXeXeXrX,X%XW.T.T.R.+X9XrXeXeXeXwX7X(.h.y.p.a.c.v.b.b.b.b.b.b.tXtXtXtXtXtXtXtXtXtXtX",
"tXtXtXtXtXtXtXtXtXtXtXtXb.b.b.m.B.|.8XwXeXeXeXeXeXeXeXeXeXrXrXeXrXrXeXeXeXrX4X[.h.p.a.k.v.v.b.b.b.b.b.b.tXtXtXtXtXtXtXtXtXtXtXtX",
"tXtXtXtXtXtXtXtXtXtXtXtXtXb.b.b.b.N.].;X8XwXeXeXeXeXeXeXeXeXeXeXeXeXeXeX7X&X'.j.k.c.v.v.b.b.b.b.b.b.b.tXtXtXtXtXtXtXtXtXtXtXtXtX",
"tXtXtXtXtXtXtXtXtXtXtXtXtXtXtXb.b.b.m.B.|.;X8XwXrXeXeXeXeXeXeXeXeXqX7X;X{.M.c.c.v.v.b.b.b.b.b.b.b.tXtXtXtXtXtXtXtXtXtXtXtXtXtXtX",
"tXtXtXtXtXtXtXtXtXtXtXtXtXtXtXtXb.b.b.b.m.N.B.}.-X;X8X8X8X5X5X;X-X}.B.M.v.v.v.b.b.b.b.b.b.b.b.b.tXtXtXtXtXtXtXtXtXtXtXtXtXtXtXtX",
"tXtXtXtXtXtXtXtXtXtXtXtXtXtXtXtXtXtXb.b.b.b.b.N.N.B.B.B.B.B.B.B.n.m.m.v.b.b.b.b.b.b.b.b.b.b.tXtXtXtXtXtXtXtXtXtXtXtXtXtXtXtXtXtX",
"tXtXtXtXtXtXtXtXtXtXtXtXtXtXtXtXtXtXtXtXb.b.b.b.b.b.b.b.b.b.b.b.b.b.b.b.b.b.b.b.b.b.b.b.tXtXtXtXtXtXtXtXtXtXtXtXtXtXtXtXtXtXtXtX",
"tXtXtXtXtXtXtXtXtXtXtXtXtXtXtXtXtXtXtXtXtXtXb.b.b.b.b.b.b.b.b.b.b.b.b.b.b.b.b.b.b.b.tXtXtXtXtXtXtXtXtXtXtXtXtXtXtXtXtXtXtXtXtXtX",
"tXtXtXtXtXtXtXtXtXtXtXtXtXtXtXtXtXtXtXtXtXtXtXtXtXtXb.b.b.b.b.b.b.b.b.m.b.b.b.tXtXtXtXtXtXtXtXtXtXtXtXtXtXtXtXtXtXtXtXtXtXtXtXtX",
"tXtXtXtXtXtXtXtXtXtXtXtXtXtXtXtXtXtXtXtXtXtXtXtXtXtXtXtXtXtXtXtXtXtXtXtXtXtXtXtXtXtXtXtXtXtXtXtXtXtXtXtXtXtXtXtXtXtXtXtXtXtXtXtX",
"tXtXtXtXtXtXtXtXtXtXtXtXtXtXtXtXtXtXtXtXtXtXtXtXtXtXtXtXtXtXtXtXtXtXtXtXtXtXtXtXtXtXtXtXtXtXtXtXtXtXtXtXtXtXtXtXtXtXtXtXtXtXtXtX",
"tXtXtXtXtXtXtXtXtXtXtXtXtXtXtXtXtXtXtXtXtXtXtXtXtXtXtXtXtXtXtXtXtXtXtXtXtXtXtXtXtXtXtXtXtXtXtXtXtXtXtXtXtXtXtXtXtXtXtXtXtXtXtXtX",
"tXtXtXtXtXtXtXtXtXtXtXtXtXtXtXtXtXtXtXtXtXtXtXtXtXtXtXtXtXtXtXtXtXtXtXtXtXtXtXtXtXtXtXtXtXtXtXtXtXtXtXtXtXtXtXtXtXtXtXtXtXtXtXtX",
"tXtXtXtXtXtXtXtXtXtXtXtXtXtXtXtXtXtXtXtXtXtXtXtXtXtXtXtXtXtXtXtXtXtXtXtXtXtXtXtXtXtXtXtXtXtXtXtXtXtXtXtXtXtXtXtXtXtXtXtXtXtXtXtX"
};
