/* XPM */
static const char *Spells_Effect[] = {
/* columns rows colors chars-per-pixel */
"64 64 137 2 ",
"   c #1684A1",
".  c #1986A3",
"X  c #1D8AA5",
"o  c #1F91A6",
"O  c #218BA7",
"+  c #258EA9",
"@  c #2094A7",
"#  c #2493A9",
"$  c #2C93AC",
"%  c #259BAA",
"&  c #289FAC",
"*  c #3196AF",
"=  c #3397B0",
"-  c #3599B1",
";  c #3B9DB4",
":  c #2BA4AD",
">  c #2EA8AF",
",  c #2FAAB0",
"<  c #33A6B1",
"1  c #3FA0B6",
"2  c #32AFB2",
"3  c #3CABB6",
"4  c #34B2B3",
"5  c #3DB6B7",
"6  c #3ABAB6",
"7  c #3EB7B8",
"8  c #40A1B7",
"9  c #45A4B9",
"0  c #49A7BB",
"q  c #43ACB9",
"w  c #4DA9BD",
"e  c #50ACBF",
"r  c #4FB4BF",
"t  c #41BCBA",
"y  c #3EC1B9",
"u  c #42C5BA",
"i  c #48C7BE",
"p  c #45CBBD",
"a  c #4ACABF",
"s  c #49D1BF",
"d  c #54AEC1",
"f  c #57B0C2",
"g  c #5CB3C5",
"h  c #60B6C7",
"j  c #62B7C8",
"k  c #65B9C9",
"l  c #6BBDCC",
"z  c #5BC7C6",
"x  c #5FCDC8",
"c  c #4CD5C1",
"v  c #4FDBC3",
"b  c #50D3C2",
"n  c #50DDC3",
"m  c #5AD8C7",
"M  c #63C3CA",
"N  c #6EC2CE",
"B  c #60CFC9",
"V  c #6ACACD",
"C  c #70C1CF",
"Z  c #64D4CB",
"A  c #63DACC",
"S  c #6ADDCF",
"D  c #74C4D1",
"F  c #79C7D4",
"G  c #76C9D3",
"H  c #7DCAD5",
"J  c #71D4D1",
"K  c #7AD4D5",
"L  c #76DCD4",
"P  c #45E6CB",
"I  c #54E3C6",
"U  c #5BE3C8",
"Y  c #5BECC9",
"T  c #5EF2CC",
"R  c #61EDCC",
"E  c #68EDCF",
"W  c #61F6CD",
"Q  c #64FBCF",
"!  c #6DE2D1",
"~  c #76E7D5",
"^  c #7BE4D7",
"/  c #74ECD5",
"(  c #79EAD7",
")  c #73ECDC",
"_  c #7BEDDE",
"`  c #68F7D0",
"'  c #66FED0",
"]  c #6CFED3",
"[  c #74F2D5",
"{  c #78F3D7",
"}  c #74FDD6",
"|  c #7AF5D8",
" . c #7AFED9",
".. c #80CCD7",
"X. c #82CDD8",
"o. c #85D1DA",
"O. c #8BD3DD",
"+. c #80D9D8",
"@. c #8BDBDE",
"#. c #90D6DF",
"$. c #82E5DA",
"%. c #8BE9DF",
"&. c #85F3DD",
"*. c #82FEDD",
"=. c #91D7E0",
"-. c #94DAE2",
";. c #9ADDE5",
":. c #9FE0E7",
">. c #95EEE4",
",. c #8CFDE1",
"<. c #93F6E3",
"1. c #9AF6E7",
"2. c #93FDE4",
"3. c #99FDE7",
"4. c #9DF2E8",
"5. c #9DFFE9",
"6. c #A0E1E7",
"7. c #A3E4E9",
"8. c #A8E7EC",
"9. c #A2EEEA",
"0. c #ACEAEE",
"q. c #B0ECEF",
"w. c #A1F2EC",
"e. c #A3FEEC",
"r. c #AAFEEF",
"t. c #AFECF0",
"y. c #B2EEF1",
"u. c #AEF3F1",
"i. c #AEFBF1",
"p. c #B5F1F3",
"a. c #BAF3F5",
"s. c #B3FDF3",
"d. c #BAFEF6",
"f. c #BFFEF8",
"g. c #C3FCFA",
"h. c #CCFFFE",
"j. c None",
/* pixels */
"j.j.j.j.j.j.j.j.j.j.j.j.j.j.j.j.j.j.j.j.j.j.j.j.j.j.j.j.j.j.j.j.j.j.j.j.j.j.j.j.j.j.j.j.j.j.j.j.j.j.j.j.j.j.j.j.j.j.j.j.j.j.j.j.",
"j.j.j.j.j.j.j.j.j.j.j.j.j.j.j.j.j.j.j.j.j.j.j.j.j.j.j.j.j.j.j.j.j.j.j.j.j.j.j.j.j.j.j.j.j.j.j.j.j.j.j.j.j.j.j.j.j.j.j.j.j.j.j.j.",
"j.j.j.j.j.j.j.j.j.j.j.j.j.j.j.j.j.j.j.j.j.j.j.j.j.j.j.j.j.j.j.j.j.j.j.j.j.j.j.j.j.j.j.j.j.j.j.j.j.j.j.j.j.j.j.j.j.j.j.j.j.j.j.j.",
"j.j.j.j.j.j.j.j.j.j.j.j.j.j.j.j.j.j.j.j.j.j.j.j.j.j.j.j.j.j.j.j.j.j.j.j.j.j.j.j.j.j.j.j.j.j.j.j.j.j.j.j.j.j.j.j.j.j.j.j.j.j.j.j.",
"j.j.j.j.j.j.j.j.j.j.j.j.j.j.j.j.j.j.j.j.j.j.j.j.j.j.j.j.j.j.j.j.j.j.j.j.j.j.j.j.j.j.j.j.j.j.j.j.j.j.j.j.j.j.j.j.j.j.j.j.j.j.j.j.",
"j.j.j.j.j.j.j.j.j.j.j.j.j.j.j.j.j.j.j.j.j.j.j.j.j.j.j.j.j.' ' Q ' ' ' ' j.j.j.j.j.j.j.j.j.j.j.j.j.j.j.j.j.j.j.j.j.j.j.j.j.j.j.j.",
"j.j.j.j.j.j.j.j.j.j.j.j.j.j.j.j.j.j.j.j.j.j.j.j.' ' ' ' ' ' ' Q ' ' ' ' ' ' ' ' j.j.j.j.j.j.j.j.j.j.j.j.j.j.j.j.j.j.j.j.j.j.j.j.",
"j.j.j.j.j.j.j.j.j.j.j.j.j.j.j.j.j.j.j.j.j.' ' ' ' ' } 2.e.r.d.s.5.3.*.' ' ' ' ' ' ' ' j.j.j.j.j.j.j.j.j.j.j.j.j.j.j.j.j.j.j.j.j.",
"j.j.j.j.j.j.j.j.j.j.j.j.j.j.j.j.j.j.j.' ' ' ' } e.g.h.h.h.h.h.h.h.h.h.h.e.*.' ' ' ' ' ' ' j.j.j.j.j.j.j.j.j.j.j.j.j.j.j.j.j.j.j.",
"j.j.j.j.j.j.j.j.j.j.j.j.j.j.j.j.j.j.' ' ' ] i.h.h.h.h.h.h.h.h.h.h.h.h.h.h.h.s.*.' ' ' ' ' ' ' j.j.j.j.j.j.j.j.j.j.j.j.j.j.j.j.j.",
"j.j.j.j.j.j.j.j.j.j.j.j.j.j.j.j.' ' ' ' ,.g.h.h.h.h.h.h.h.h.h.s.s.1.<.s.s.h.h.h.e.] ' ' ' ' ' ' j.j.j.j.j.j.j.j.j.j.j.j.j.j.j.j.",
"j.j.j.j.j.j.j.j.j.j.j.j.j.j.j.' ' ' ' 5.h.h.h.h.h.h.h.g.4.~ n n v n n n I I [ 1.f.d.' ' ' ' ' ' ' j.j.j.j.j.j.j.j.j.j.j.j.j.j.j.",
"j.j.j.j.j.j.j.j.j.j.j.j.j.j.' ' ' ' r.h.h.h.h.h.h.g.%.c p u y 6 6 y u u p c v I I &.r.] ' ' ' ' ' ' j.j.j.j.j.j.j.j.j.j.j.j.j.j.",
"j.j.j.j.j.j.j.j.j.j.j.j.j.' ' ' ' 2.h.h.h.h.h.h.9.i 6 2 , : & & & : : > 4 6 y p v I Y | W Q ' ' ' ' ' j.j.j.j.j.j.j.j.j.j.j.j.j.",
"j.j.j.j.j.j.j.j.j.j.j.j.' ' ' '  .h.h.h.h.h.h.J 4 : % X X X X . X X X X X @ : 4 6 p c I Y T Q Q ' ' ' ' j.j.j.j.j.j.j.j.j.j.j.j.",
"j.j.j.j.j.j.j.j.j.j.j.' ' ' ' ' f.h.h.h.h.h.V : o X O + $ $ $ = $ * $ ; f D D G K K Z p n Y T Q ' ' ' ' ' j.j.j.j.j.j.j.j.j.j.j.",
"j.j.j.j.j.j.j.j.j.j.' ' ' ' Q 3.h.h.h.h.h.M @ X + $ = = ; ; 8 8 d O.a.h.h.h.h.h.h.h.h.h.w.$.R Y Q Q ' ' ' ' j.j.j.j.j.j.j.j.j.j.",
"j.j.j.j.j.j.j.j.j.j.' ' ' ' Q g.h.h.h.h.o.X X $ = - ; 0 0 d h 0.h.h.0.q.y.h.h.h.h.h.h.h.h.h.g.<.W Q ' ' ' ' ' j.j.j.j.j.j.j.j.j.",
"j.j.j.j.j.j.j.j.j.' ' ' ' Q *.h.h.h.h.y.# + $ ; 8 w ; $ + .   9 ; 9 h g g e g F 6.h.h.h.h.h.h.h.s.| Q ' ' ' ' j.j.j.j.j.j.j.j.j.",
"j.j.j.j.j.j.j.j.' ' ' ' ' Q w.h.h.h.h.d + * ; 0 8 .       - d f g g f ; $ $ + + * 1 X.g.h.h.h.h.h.h.,.Q ' ' ' ' j.j.j.j.j.j.j.j.",
"j.j.j.j.j.j.j.j.' ' ' ' Q T f.h.h.h.p.+ = 1 0 $       8 D H H H k $                 O ; ;.h.h.h.h.h.h.,.' ' ' ' j.j.j.j.j.j.j.j.",
"j.j.j.j.j.j.j.' ' ' ' ' W R h.h.h.h.k * 8 w $     . g ..X.X.O.h   $ 1 e w 0 *           + k g.h.h.h.h.h.,.' ' ' ' j.j.j.j.j.j.j.",
"j.j.j.j.j.j.j.' ' ' ' Q T / h.h.h.h.; ; 0 8       l X.O.#.=.k - F -.-.#.O.o...D 9 .       O 9 g.h.h.h.h.g.} ' ' ' j.j.j.j.j.j.j.",
"j.j.j.j.j.j.j.' ' ' ' W Y ! h.h.h.7.; 0 f O     d O.O.-.;.O.l :.6.6.;.;.-.O.O.X.F k $       + 1 h.h.h.h.h.s.' ' ' ' j.j.j.j.j.j.",
"j.j.j.j.j.j.' ' ' ' Q W I S h.h.h.O.8 e 8     + O.=.-.6.6.8.8.8.8.8.8.6.:.;.-.O...F l =     . + g h.h.h.h.h.,.' ' ' j.j.j.j.j.j.",
"j.j.j.j.j.j.' ' ' ' Q Y n Z h.h.h.H 0 f $     h =.-.6.8.8.t.y.y.y.y.q.q.8.:.;.=.O.H D k +     O X -.h.h.h.h.g.' ' ' j.j.j.j.j.j.",
"j.j.j.j.j.j.' ' ' Q Q Y v B h.h.h.k e h .     ..;.6.7.0.y.y.p.a.a.p.p.y.q.8.6.;.-.O.H D d     O + - h.h.h.h.h. .' ' j.j.j.j.j.j.",
"j.j.j.j.j.j.' ' ' Q T I p 7 h.h.h.k f k     + -.;.7.q.y.a.a.u.4.9.u.a.p.y.q.8.6.-.O...D l +     $ X @.h.h.h.h.e.' ' ' j.j.j.j.j.",
"j.j.j.j.j.j.' ' ' Q T I p > p.h.h.l g l     = ;.7.0.y.a.p._ P P P P _ p.p.y.0.7.;.H o.F l 0     $ X 3 h.h.h.h.d.' ' ' j.j.j.j.j.",
"j.j.j.j.j.' ' ' ' Q T n u : H h.h.-.h l .   ; ;.8.0.y.a.) P P P P P P ) g.y.q.8.;.e H H C f     $ X % p.h.h.h.h.' ' ' j.j.j.j.j.",
"j.j.j.j.j.' ' ' ' Q T n y < ; h.h.6.h D *   O 6.8.y.y.u.P P P P P P P P y.a.y.0.6.D 8 ..D k     - O @ K h.h.h.h.*.' ' j.j.j.j.j.",
"j.j.j.j.j.' ' ' ' Q Y v i N X 0.h.a.h l w     O.8.y.a.w.P P P P P P P P 9.a.y.0.6.F X ..D k   X - O @ x h.h.h.h.*.' ' j.j.j.j.j.",
"j.j.j.j.j.' ' ' Q Q Y v L G X g h.h.l D F . . g 8.y.a.w.P P P P P P P P w.a.p.t.7.H   l D k   $ = + @ t h.h.h.h.*.Q ' j.j.j.j.j.",
"j.j.j.j.j.' ' ' ' Q T n 9.r X $ 8.h.;.l H d   . ;.y.a.u.P P P P P P P P u.a.y.8.7.l   k D d   ; = O @ 6 h.h.h.h.*.' ' j.j.j.j.j.",
"j.j.j.j.j.' ' ' ' Q T n g.M X $ e g.g.l F X.$   f y.p.a._ P P P P P P _ a.p.t.8.:.e   k l - $ 9 = X % 6 h.h.h.h.*.' ' j.j.j.j.j.",
"j.j.j.j.j.' ' ' ' Q T U h.H X $ ; l h.-.F X.O.=   D y.p.p._ P P P P _ a.a.p.t.7.;.+   h l $ e 1 $ X & y h.h.h.h.' ' ' j.j.j.j.j.",
"j.j.j.j.j.j.' ' ' Q T / h.-.X + ; 0 X.g.H ..O.-.d   l y.a.a.p.w.w.p.a.a.p.t.8.6.k     D 9 w w ; $ X < a h.h.h.f.' ' ' j.j.j.j.j.",
"j.j.j.j.j.j.' ' ' ' Q { h.0.% X * 8 e X.y.H X...X.=.d d -.p.a.a.a.a.p.y.t.0.7.=.O   $ l k f 9 = + X 2 A h.h.h.e.' ' j.j.j.j.j.j.",
"j.j.j.j.j.j.' ' ' ' Q { h.h.2 X $ ; w g D X...O.; =.6.8.0.y.y.y.p.y.t.0.0.7.-.*     e l h w ; * X % 6 $.h.h.h.*.' ' j.j.j.j.j.j.",
"j.j.j.j.j.j.' ' ' ' Q | h.h.V X + = 9 e h l F X.k $ O.6.8.8.8.8.0.0.0.8.;.=.*     + l k d 0 ; $ X > u w.h.h.g.Q ' ' j.j.j.j.j.j.",
"j.j.j.j.j.j.j.' ' ' ' ` h.h.a.& O $ ; 0 f k C F ..8 O f -.;.7.7.7.7.;.;.g X .   . g k g w 9 * O @ 4 c h.h.h.,.' ' ' j.j.j.j.j.j.",
"j.j.j.j.j.j.j.' ' ' ' Q g.h.h.z O O * 8 w f k C F F *   . 0 f H F g d O     . . d k g d d D $   > u %.h.h.s.' ' ' j.j.j.j.j.j.j.",
"j.j.j.j.j.j.j.' ' ' ' Q i.h.h.a.& X + - 8 e g k l F H 9                     O g k f d 9 -.d X % 6 b g.h.h.} ' ' ' j.j.j.j.j.j.j.",
"j.j.j.j.j.j.j.j.' ' ' ' ,.h.h.h.@.%   $ ; 8 w f j l l F l 1 .           + d l g f d 9 l g.X @ 2 p >.h.h.,.Q ' ' j.j.j.j.j.j.j.j.",
"j.j.j.j.j.j.j.j.' ' ' ' ] g.h.h.h.V @ X $ * 8 0 d g k k N C D j f f f l l k f d d 8 d g.H X 2 y S h.h.,.' ' ' ' j.j.j.j.j.j.j.j.",
"j.j.j.j.j.j.j.j.j.' ' ' ' r.h.h.h.h.V @ . $ * 1 9 w d f g h k k k k k g f d d d 8 ; t.h.- > 6 A g.h.,.' ' ' ' j.j.j.j.j.j.j.j.j.",
"j.j.j.j.j.j.j.j.j.' ' ' ' ] g.h.h.h.h.V @ X + $ ; ; 9 0 e e d f f d d d d d - ; d g.h.#.2 6 m d.s. .' ' ' ' ' j.j.j.j.j.j.j.j.j.",
"j.j.j.j.j.j.j.j.j.j.' ' ' ' 2.h.h.h.h.h.@.< X O + * - ; 1 9 8 0 d ; 8 ; ; = $ l a.h.g.5 y A f.3.W ' ' ' ' ' j.j.j.j.j.j.j.j.j.j.",
"j.j.j.j.j.j.j.j.j.j.j.' ' ' ' i.h.h.h.h.h.a.V % X . + $ $ * * - - - = $ $ d 6.h.h.h.x p c &.` W ' ' ' ' ' j.j.j.j.j.j.j.j.j.j.j.",
"j.j.j.j.j.j.j.j.j.j.j.j.' ' ' ] d.h.h.h.h.h.h.p.+.q X X X X O O O O - g 8.h.h.h.h.L c n Y T W ' ' ' ' ' ' j.j.j.j.j.j.j.j.j.j.j.",
"j.j.j.j.j.j.j.j.j.j.j.j.j.' ' ' ] f.h.h.h.h.h.h.h.h.g.7.o.G D D 6.y.h.h.h.h.h.h.^ v I Y T ' ' ' ' ' ' ' j.j.j.j.j.j.j.j.j.j.j.j.",
"j.j.j.j.j.j.j.j.j.j.j.j.j.j.' ' ' ] r.h.h.h.h.h.h.h.h.h.h.h.h.h.h.h.h.h.h.h.g.( I Y T W ' ' ' ' ' ' ' j.j.j.j.j.j.j.j.j.j.j.j.j.",
"j.j.j.j.j.j.j.j.j.j.j.j.j.j.j.' ' ' ' *.g.h.h.h.h.h.h.h.h.h.h.h.h.h.h.h.h.i.E Y T W ' ' ' ' ' ' ' ' j.j.j.j.j.j.j.j.j.j.j.j.j.j.",
"j.j.j.j.j.j.j.j.j.j.j.j.j.j.j.j.' ' ' ' ] 3.g.h.h.h.h.h.h.h.h.h.h.h.h.r.{ T W Q ' ' ' ' ' ' ' ' j.j.j.j.j.j.j.j.j.j.j.j.j.j.j.j.",
"j.j.j.j.j.j.j.j.j.j.j.j.j.j.j.j.j.' ' ' ' ' '  .3.s.g.h.h.h.h.d.r.2.} W ' Q ' ' ' ' ' ' ' ' ' j.j.j.j.j.j.j.j.j.j.j.j.j.j.j.j.j.",
"j.j.j.j.j.j.j.j.j.j.j.j.j.j.j.j.j.j.j.' ' ' ' ' Q ' ' ' ' ' ' ' ' ' ' ' ' ' ' ' ' ' ' ' ' j.j.j.j.j.j.j.j.j.j.j.j.j.j.j.j.j.j.j.",
"j.j.j.j.j.j.j.j.j.j.j.j.j.j.j.j.j.j.j.j.j.' ' ' ' ' ' ' ' ' ' ' ' ' ' ' ' ' ' ' ' ' ' j.j.j.j.j.j.j.j.j.j.j.j.j.j.j.j.j.j.j.j.j.",
"j.j.j.j.j.j.j.j.j.j.j.j.j.j.j.j.j.j.j.j.j.j.j.' ' ' ' ' ' ' ' ' ' ' ' ' ' ' ' ' ' j.j.j.j.j.j.j.j.j.j.j.j.j.j.j.j.j.j.j.j.j.j.j.",
"j.j.j.j.j.j.j.j.j.j.j.j.j.j.j.j.j.j.j.j.j.j.j.j.j.j.j.' ' ' ' ' ' ' ' ' ' j.j.j.j.j.j.j.j.j.j.j.j.j.j.j.j.j.j.j.j.j.j.j.j.j.j.j.",
"j.j.j.j.j.j.j.j.j.j.j.j.j.j.j.j.j.j.j.j.j.j.j.j.j.j.j.j.j.j.j.j.j.j.j.j.j.j.j.j.j.j.j.j.j.j.j.j.j.j.j.j.j.j.j.j.j.j.j.j.j.j.j.j.",
"j.j.j.j.j.j.j.j.j.j.j.j.j.j.j.j.j.j.j.j.j.j.j.j.j.j.j.j.j.j.j.j.j.j.j.j.j.j.j.j.j.j.j.j.j.j.j.j.j.j.j.j.j.j.j.j.j.j.j.j.j.j.j.j.",
"j.j.j.j.j.j.j.j.j.j.j.j.j.j.j.j.j.j.j.j.j.j.j.j.j.j.j.j.j.j.j.j.j.j.j.j.j.j.j.j.j.j.j.j.j.j.j.j.j.j.j.j.j.j.j.j.j.j.j.j.j.j.j.j.",
"j.j.j.j.j.j.j.j.j.j.j.j.j.j.j.j.j.j.j.j.j.j.j.j.j.j.j.j.j.j.j.j.j.j.j.j.j.j.j.j.j.j.j.j.j.j.j.j.j.j.j.j.j.j.j.j.j.j.j.j.j.j.j.j.",
"j.j.j.j.j.j.j.j.j.j.j.j.j.j.j.j.j.j.j.j.j.j.j.j.j.j.j.j.j.j.j.j.j.j.j.j.j.j.j.j.j.j.j.j.j.j.j.j.j.j.j.j.j.j.j.j.j.j.j.j.j.j.j.j."
};
