/* XPM */
static const char *J[] = {
/* columns rows colors const chars-per-pixel */
"27 61 256 2 ",
"   c #FFFFFF",
".  c #010101",
"X  c #020202",
"o  c #7E7E7E1",
"O  c #040404",
"+  c #7E7E7E2",
"@  c #060606",
"#  c #070707",
"$  c #7E7E7E3",
"%  c #090909",
"&  c #7E7E7E4",
"*  c #0B0B0B",
"=  c #0C0C0C",
"-  c #7E7E7E5",
";  c #0E0E0E",
":  c #7E7E7E6",
">  c #101010",
",  c #111111",
"<  c #7E7E7E7",
"1  c #131313",
"2  c #7E7E7E8",
"3  c #151515",
"4  c #161616",
"5  c #7E7E7E9",
"6  c #181818",
"7  c #191919",
"8  c #7E7E7E10",
"9  c #1B1B1B",
"0  c #7E7E7E11",
"q  c #1D1D1D",
"w  c #1E1E1E",
"e  c #7E7E7E12",
"r  c #202020",
"t  c #7E7E7E13",
"y  c #222222",
"u  c #232323",
"i  c #7E7E7E14",
"p  c #252525",
"a  c #7E7E7E15",
"s  c #272727",
"d  c #282828",
"f  c #7E7E7E16",
"g  c #2A2A2A",
"h  c #7E7E7E17",
"j  c #2C2C2C",
"k  c #2D2D2D",
"l  c #7E7E7E18",
"z  c #2F2F2F",
"x  c #7E7E7E19",
"c  c #313131",
"v  c #323232",
"b  c #7E7E7E20",
"n  c #343434",
"m  c #353535",
"M  c #7E7E7E21",
"N  c #373737",
"B  c #7E7E7E22",
"V  c #393939",
"C  c #3A3A3A",
"Z  c #7E7E7E23",
"A  c #3C3C3C",
"S  c #7E7E7E24",
"D  c #3E3E3E",
"F  c #3F3F3F",
"G  c #7E7E7E25",
"H  c #414141",
"J  c #7E7E7E26",
"K  c #434343",
"L  c #444444",
"P  c #7E7E7E27",
"I  c #464646",
"U  c #7E7E7E28",
"Y  c #484848",
"T  c #494949",
"R  c #7E7E7E29",
"E  c #4B4B4B",
"W  c #4C4C4C",
"Q  c #7E7E7E30",
"!  c #4E4E4E",
"~  c #7E7E7E31",
"^  c #505050",
"/  c #515151",
"(  c #7E7E7E32",
")  c #535353",
"_  c #7E7E7E33",
"`  c #555555",
"'  c #565656",
"]  c #7E7E7E34",
"[  c #585858",
"{  c #7E7E7E35",
"}  c #5A5A5A",
"|  c #5B5B5B",
" . c #7E7E7E36",
".. c #5D5D5D",
"X. c #7E7E7E37",
"o. c #5F5F5F",
"O. c #606060",
"+. c #7E7E7E38",
"@. c #626262",
"#. c #7E7E7E39",
"$. c #646464",
"%. c #656565",
"&. c #7E7E7E40",
"*. c #676767",
"=. c #686868",
"-. c #696969",
";. c #6A6A6A",
":. c #7E7E7E42",
">. c #6C6C6C",
",. c #6D6D6D",
"<. c #7E7E7E43",
"1. c #6F6F6F",
"2. c #7E7E7E44",
"3. c #717171",
"4. c #727272",
"5. c #7E7E7E45",
"6. c #747474",
"7. c #7E7E7E46",
"8. c #767676",
"9. c #777777",
"0. c #7E7E7E47",
"q. c #797979",
"w. c #7E7E7E48",
"e. c #7B7B7B",
"r. c #7C7C7C",
"t. c #7E7E7E49",
"y. c #7E7E7E",
"u. c #7F7F7F",
"i. c #808080",
"p. c #818181",
"a. c #828282",
"s. c #838383",
"d. c #848484",
"f. c #858585",
"g. c #868686",
"h. c #878787",
"j. c #888888",
"k. c #898989",
"l. c #8A8A8A",
"z. c #8B8B8B",
"x. c #8C8C8C",
"c. c #8D8D8D",
"v. c #8E8E8E",
"b. c #8F8F8F",
"n. c #909090",
"m. c #919191",
"M. c #929292",
"N. c #939393",
"B. c #949494",
"V. c #959595",
"C. c #969696",
"Z. c #979797",
"A. c #989898",
"S. c #999999",
"D. c #9A9A9A",
"F. c #9B9B9B",
"G. c #9C9C9C",
"H. c #9D9D9D",
"J. c #9E9E9E",
"K. c #9F9F9F",
"L. c #A0A0A0",
"P. c #A1A1A1",
"I. c #A2A2A2",
"U. c #A3A3A3",
"Y. c #A4A4A4",
"T. c #A5A5A5",
"R. c #A6A6A6",
"E. c #A7A7A7",
"W. c #A8A8A8",
"Q. c #A9A9A9",
"!. c #AAAAAA",
"~. c #ABABAB",
"^. c #ACACAC",
"/. c #ADADAD",
"(. c #AEAEAE",
"). c #AFAFAF",
"_. c #B0B0B0",
"`. c #B1B1B1",
"'. c #B2B2B2",
"]. c #B3B3B3",
"[. c #B4B4B4",
"{. c #B5B5B5",
"}. c #B6B6B6",
"|. c #B7B7B7",
" X c #B8B8B8",
".X c #B9B9B9",
"XX c #BABABA",
"oX c #BBBBBB",
"OX c #BCBCBC",
"+X c #BDBDBD",
"@X c #7E7E7E",
"#X c #BFBFBF",
"$X c #C0C0C0",
"%X c #C1C1C1",
"&X c #C2C2C2",
"*X c #C3C3C3",
"=X c #C4C4C4",
"-X c #C5C5C5",
";X c #C6C6C6",
":X c #C7C7C7",
">X c #C8C8C8",
",X c #C9C9C9",
"<X c #CACACA",
"1X c #CBCBCB",
"2X c #CCCCCC",
"3X c #CDCDCD",
"4X c #CECECE",
"5X c #CFCFCF",
"6X c #D0D0D0",
"7X c #D1D1D1",
"8X c #D2D2D2",
"9X c #D3D3D3",
"0X c #D4D4D4",
"qX c #D5D5D5",
"wX c #D6D6D6",
"eX c #D7D7D7",
"rX c #D8D8D8",
"tX c #D9D9D9",
"yX c #DADADA",
"uX c #DBDBDB",
"iX c #DCDCDC",
"pX c #DDDDDD",
"aX c #DEDEDE",
"sX c #DFDFDF",
"dX c #E0E0E0",
"fX c #E1E1E1",
"gX c #E2E2E2",
"hX c #E3E3E3",
"jX c #E4E4E4",
"kX c #E5E5E5",
"lX c #E6E6E6",
"zX c #E7E7E7",
"xX c #E8E8E8",
"cX c #E9E9E9",
"vX c #EAEAEA",
"bX c #EBEBEB",
"nX c #ECECEC",
"mX c #EDEDED",
"MX c #EEEEEE",
"NX c #EFEFEF",
"BX c #F0F0F0",
"VX c #F1F1F1",
"CX c #F2F2F2",
"ZX c #F3F3F3",
"AX c #F4F4F4",
"SX c #F5F5F5",
"DX c #F6F6F6",
"FX c #F7F7F7",
"GX c #F8F8F8",
"HX c #F9F9F9",
"JX c #FAFAFA",
"KX c #FBFBFB",
"LX c #FCFCFC",
"PX c #FDFDFD",
"IX c #FEFEFE",
"UX c None",
/* pixels */
"UXUXUXUXUXUXUXUXUXUXUXUXUXUXUXUXUXUXUXUXUXUXUXUXUXUXUX",
"UXUXUXUXUXUXUXUXUXUXUXUXUXUXUXUXUXUXUXUXUXUXUXUXUXUXUX",
"UXUXUXUXUXUXUXUXUXUXUXUXUXUXUXUXUXUXUXUXUXUXUXUXUXUXUX",
"UXUXUXUXUXUXUXUXUXUXUXUXUXUXUXUXUXUXUXUXUXUXUXUXUXUXUX",
"UXUXUXUXUXUXUXUXUXUXUXUXUXUXUXUXUXUXUXUXUXUXUXUXUXUXUX",
"UXUXUXUXUXUXUXUXUXUXUXUXUXUXUXUXUXUXUXUXUXUXUXUXUXUXUX",
"UXUXUXUXUXUXUXUXUXUXUXUXUXUXUXUXUXIXJXMXfX9X-X:XHXUXUX",
"UXUXUXUXUXUXUXUXUXUXUXUXUXAXE.r.-.` P V z i 6 C bXUXUX",
"UXUXUXUXUXUXUXUXUXUXUXUXUXzXS                 j cXUXUX",
"UXUXUXUXUXUXUXUXUXUXUXUXUXxXD                 h cXUXUX",
"UXUXUXUXUXUXUXUXUXUXUXUXUXbXJ                 g cXUXUX",
"UXUXUXUXUXUXUXUXUXUXUXUXUXmXP                 f cXUXUX",
"UXUXUXUXUXUXUXUXUXUXUXUXUXNXY                 d xXUXUX",
"UXUXUXUXUXUXUXUXUXUXUXUXUXVXE                 s xXUXUX",
"UXUXUXUXUXUXUXUXUXUXUXUXUXZX!                 a xXUXUX",
"UXUXUXUXUXUXUXUXUXUXUXUXUXSX(                 p xXUXUX",
"UXUXUXUXUXUXUXUXUXUXUXUXUXFX`                 p zXUXUX",
"UXUXUXUXUXUXUXUXUXUXUXUXUXHX[                 i zXUXUX",
"UXUXUXUXUXUXUXUXUXUXUXUXUXKX|                 y zXUXUX",
"UXUXUXUXUXUXUXUXUXUXUXUXUXPXX.                y zXUXUX",
"UXUXUXUXUXUXUXUXUXUXUXUXUXUX+.                t zXUXUX",
"UXUXUXUXUXUXUXUXUXUXUXUXUXUX%.                r lXUXUX",
"UXUXUXUXUXUXUXUXUXUXUXUXUXUX=.                e lXUXUX",
"UXUXUXUXUXUXUXUXUXUXUXUXUXUX:.                w lXUXUX",
"UXUXUXUXUXUXUXUXUXUXUXUXUXUX2.                q lXUXUX",
"UXUXUXUXUXUXUXUXUXUXUXUXUXUX6.                0 kXUXUX",
"UXUXUXUXUXUXUXUXUXUXUXUXUXUX0.                9 kXUXUX",
"UXUXUXUXUXUXUXUXUXUXUXUXUXUXr.                8 kXUXUX",
"UXUXUXUXUXUXUXUXUXUXUXUXUXUXi..               8 jXUXUX",
"UXUXUXUXUXUXUXUXUXUXUXUXUXUXd.X               8 hXUXUX",
"UXUXUXUXUXUXUXUXUXUXUXUXUXUXj.o               8 gXUXUX",
"UXUXUXUXUXUXUXUXUXUXUXUXUXUXx.O               7 fXUXUX",
"UXUXUXUXUXUXUXUXUXUXUXUXUXUXn.+               7 dXUXUX",
"UXUXUXUXUXUXUXUXUXUXUXUXUXUXB.@               7 sXUXUX",
"UXUXUXUXUXUXUXUXUXUXUXUXUXUXA.#               7 sXUXUX",
"UXUXUXUXUXUXUXUXUXUXUXUXUXUXG.$               6 pXUXUX",
"UXUXUXUXUXUXUXUXUXUXUXUXUXUXL.%               6 iXUXUX",
"KXFXFXFXFXFXFXFXFXFXFXFXFXJXK.&               6 iXUXUX",
"T...o.o.o.o.o.o.o.o.o.o.o.O.D O               6 uXUXUX",
"-.                                            r sXUXUX",
"O.                                          + t.JXUXUX",
"]                                           U lXUXUXUX",
"!                                         e &XUXUXUXUX",
"P                                       $ b.PXUXUXUXUX",
"A                                       { NXUXUXUXUXUX",
"v                                     j 8XUXUXUXUXUXUX",
"f                                   ; U.UXUXUXUXUXUXUX",
"e                                 X :.SXUXUXUXUXUXUXUX",
"Z a a a a a a a a a a a a a a a p W pXUXUXUXUXUXUXUXUX",
"VXBXBXBXBXBXBXBXBXBXBXBXBXBXBXBXNXAXIXUXUXUXUXUXUXUXUX",
"UXUXUXUXUXUXUXUXUXUXUXUXUXUXUXUXUXUXUXUXUXUXUXUXUXUXUX",
"UXUXUXUXUXUXUXUXUXUXUXUXUXUXUXUXUXUXUXUXUXUXUXUXUXUXUX",
"UXUXUXUXUXUXUXUXUXUXUXUXUXUXUXUXUXUXUXUXUXUXUXUXUXUXUX",
"UXUXUXUXUXUXUXUXUXUXUXUXUXUXUXUXUXUXUXUXUXUXUXUXUXUXUX",
"UXUXUXUXUXUXUXUXUXUXUXUXUXUXUXUXUXUXUXUXUXUXUXUXUXUXUX",
"UXUXUXUXUXUXUXUXUXUXUXUXUXUXUXUXUXUXUXUXUXUXUXUXUXUXUX",
"UXUXUXUXUXUXUXUXUXUXUXUXUXUXUXUXUXUXUXUXUXUXUXUXUXUXUX",
"UXUXUXUXUXUXUXUXUXUXUXUXUXUXUXUXUXUXUXUXUXUXUXUXUXUXUX",
"UXUXUXUXUXUXUXUXUXUXUXUXUXUXUXUXUXUXUXUXUXUXUXUXUXUXUX",
"UXUXUXUXUXUXUXUXUXUXUXUXUXUXUXUXUXUXUXUXUXUXUXUXUXUXUX",
"UXUXUXUXUXUXUXUXUXUXUXUXUXUXUXUXUXUXUXUXUXUXUXUXUXUXUX"
};
