/* XPM */
static const char * hud_overlay_wave[] = {
"135 59 2 1",
" 	c None",
".	c #FFFCCC",
"                                                                                                                                       ",
"                                                                                                                                       ",
"                                                                                                                                       ",
"                                                                                                                                       ",
"                                                                                                                                       ",
"      ..........         ..........        ..........     ............     .........          .......... ........................      ",
"       .........         ..........        ..........    .............     ..........         .........  ........................      ",
"       ..........        ..........        ..........    .............      .........         .........  ........................      ",
"       ..........        ..........        ..........    ..............     ..........        .........  ........................      ",
"       ..........       ............       .........     ..............     ..........       ..........  ........................      ",
"       ..........       ............       .........     ..............     ..........       ..........  ........................      ",
"        .........       ............       .........    ...............     ..........       ..........  ........................      ",
"        ..........      ............      ..........    ................     .........       ..........  ........................      ",
"        ..........      ............      ..........    ................     ..........      .........   ........................      ",
"        ..........      .............     ..........    ................     ..........      .........   ........................      ",
"         .........      .............     ..........    ................     ..........      .........   ..........                    ",
"         .........     ..............     ..........    .................     .........     ..........   ..........                    ",
"         ..........    ..............     .........     .................     .........     ..........   ..........                    ",
"         ..........    ..............     .........    ..................     ..........    ..........   ..........                    ",
"          .........    ...............   ..........    ..................     ..........    ..........   ..........                    ",
"          .........    ...............   ..........    ..................      .........    .........    ..........                    ",
"          ..........   ...............   ..........    ...................     .........    .........    .....................         ",
"          ..........   ...............   ..........    ....................    ..........   .........    .....................         ",
"           .........  ................   ..........    ....................    ..........  ..........    .....................         ",
"           .........  .................  .........     ......... ..........     .........  ..........    .....................         ",
"           .........  .................  .........    .......... ..........     .........  ..........    .....................         ",
"           .......... .................  .........    .......... ...........    .........  ..........    .....................         ",
"           .......... ................. ..........    ..........  ..........    .......... .........     .....................         ",
"            ......... ................. ..........    ..........  ..........    .......... .........     .....................         ",
"            ......................................    .........   ..........     ...................     .....................         ",
"            ......................................    .........   ...........    ...................     ....................          ",
"            .....................................     .........    ..........    ...................     ..........                    ",
"             ....................................    ..........    ..........    ...................     .........                     ",
"             ....................................    ..........    ..........     ..................     .........                     ",
"             .................  .................    .........................    .................      .........                     ",
"             .................  .................    .........................    .................      .........                     ",
"              ................  .................    .........................    .................      .........                     ",
"              ................  .................    .........................     ................      ........................      ",
"              ................   ...............     .........................     ................      ........................      ",
"              ................   ...............    ...........................    ................      ........................      ",
"               ...............   ...............    ...........................    ................      ........................      ",
"               ...............   ...............    ...........................     ..............       ........................      ",
"               ..............    ...............    ...........................     ..............       ........................      ",
"               ..............     ..............    ..........       ...........    ..............       ........................      ",
"               ..............     ..............    .........        ...........    ..............       ........................      ",
"                .............     .............     .........         ..........    ..............       ........................      ",
"                .............     .............    ..........         ..........     .............       ........................      ",
"                                                                                                                                       ",
"                                                                                                                                       ",
"                                                                                                                                       ",
"                                                                                                                                       ",
"                                                                                                                                       ",
"                                                                                                                                       ",
"                                                                                                                                       ",
"                                                                                                                                       ",
"                                                                                                                                       ",
"                                                                                                                                       ",
"                                                                                                                                       ",
"                                                                                                                                       "};
