/* XPM */
static const char * hud_overlay_score[] = {
"156 53 2 1",
" 	c None",
".	c #FFFCCC",
"                                                                                                                                                            ",
"                                                                                                                                                            ",
"                                                                                                                                                            ",
"               ....................         ..................        ..................        ......................         ........................     ",
"              .....................        ...................       ....................       .......................        ........................     ",
"              .....................        ...................       .....................      ........................       ........................     ",
"             ......................       ....................      .......................     .........................      ........................     ",
"            .......................      .....................     .........................    ..........................     ........................     ",
"            .......................      .....................     ..........................   ...........................    ........................     ",
"           ........................     ......................    ............................  ............................   ........................     ",
"          .........................    .......................   .............................  ............................   ........................     ",
"          .........................    .......................   .............................  ............................   ........................     ",
"         ..........................   ........................  ..............................  ............................   ........................     ",
"         ..........                   ..........                ..........         ...........  ..........         .........   ..........                   ",
"         .........                    .........                 .........          ...........  ..........         .........   ..........                   ",
"         ..........                   .........                 .........          ...........  ..........         .........   ..........                   ",
"         ..........                   .........                 .........           ..........  ..........         .........   ..........                   ",
"         ............                 ..........                ..........          ..........  ..........         .........   ..........                   ",
"         .............                ..........                ..........          ..........  ..........         .........   ..........                   ",
"         ...............              ..........                ..........          ..........  ..........        ..........   .....................        ",
"         .................            ..........                ..........          ..........  ............................   .....................        ",
"         ..................           ..........                ..........          ..........  ............................   .....................        ",
"         ....................         ..........                ..........          ..........  ...........................    .....................        ",
"           ...................        ..........                ..........          ..........  ..........................     .....................        ",
"             ...................      ..........                ..........          ..........  ..........................     .....................        ",
"               ...................    ..........                ..........          ..........  .........................      .....................        ",
"                ...................   ..........                ..........          ..........  ........................       .....................        ",
"                  .................   ..........                ..........          ..........  .......................        .....................        ",
"                    ...............   ..........                ..........          ..........  .......................        ....................         ",
"                      .............   ..........                ..........          ..........  .......................        ..........                   ",
"                        ...........   ..........                ..........          ..........  ..........  ...........        .........                    ",
"                         ..........   ..........                ..........          ..........  ..........   ...........       .........                    ",
"                         ..........   ..........                ..........          ..........  ..........   ...........       .........                    ",
"                         ..........   ..........                ..........          ..........  ..........    ..........       .........                    ",
"                         ..........   ..........                ...........        ...........  ..........    ...........      ..........                   ",
"         ..........................   ........................  ..............................  ..........    ...........      ........................     ",
"         ..........................   ........................  .............................   ..........     ..........      ........................     ",
"         ..........................   ........................   ...........................    ..........     ..........      ........................     ",
"         .........................     .......................    ..........................    ..........     ...........     ........................     ",
"         ........................       ......................     ........................     ..........     ...........     ........................     ",
"         .......................         .....................      ......................      ..........      ..........     ........................     ",
"         ......................           ....................       .....................      ..........      ...........    ........................     ",
"         .....................             ...................        ...................       ..........      ...........    ........................     ",
"         ....................               ..................         .................        ..........       ..........    ........................     ",
"         ...................                 .................          ...............         ..........       ...........   ........................     ",
"                                                                                                                                                            ",
"                                                                                                                                                            ",
"                                                                                                                                                            ",
"                                                                                                                                                            ",
"                                                                                                                                                            ",
"                                                                                                                                                            ",
"                                                                                                                                                            ",
"                                                                                                                                                            "};
