/* XPM */
static const char *gcommaaccent[] = {
/* columns rows colors const chars-per-pixel */
"57 102 256 2 ",
"   c None",
".  c #FEFEFE",
"X  c #FDFDFD",
"o  c #FCFCFC",
"O  c #FBFBFB",
"+  c #FAFAFA",
"@  c #F9F9F9",
"#  c #F8F8F8",
"$  c #F7F7F7",
"%  c #F6F6F6",
"&  c #F5F5F5",
"*  c #F4F4F4",
"=  c #F3F3F3",
"-  c #F2F2F2",
";  c #F1F1F1",
":  c #F0F0F0",
">  c #EFEFEF",
",  c #EEEEEE",
"<  c #EDEDED",
"1  c #ECECEC",
"2  c #EBEBEB",
"3  c #EAEAEA",
"4  c #E9E9E9",
"5  c #E8E8E8",
"6  c #E7E7E7",
"7  c #E6E6E6",
"8  c #E5E5E5",
"9  c #E4E4E4",
"0  c #E3E3E3",
"q  c #E2E2E2",
"w  c #E1E1E1",
"e  c #E0E0E0",
"r  c #DFDFDF",
"t  c #DEDEDE",
"y  c #DDDDDD",
"u  c #DCDCDC",
"i  c #DBDBDB",
"p  c #DADADA",
"a  c #D9D9D9",
"s  c #D8D8D8",
"d  c #D7D7D7",
"f  c #D6D6D6",
"g  c #D5D5D5",
"h  c #D4D4D4",
"j  c #D3D3D3",
"k  c #D2D2D2",
"l  c #D1D1D1",
"z  c #D0D0D0",
"x  c #CFCFCF",
"c  c #CECECE",
"v  c #CDCDCD",
"b  c #CCCCCC",
"n  c #CBCBCB",
"m  c #CACACA",
"M  c #C9C9C9",
"N  c #C8C8C8",
"B  c #C7C7C7",
"V  c #C6C6C6",
"C  c #C5C5C5",
"Z  c #C4C4C4",
"A  c #C3C3C3",
"S  c #C2C2C2",
"D  c #C1C1C1",
"F  c #C0C0C0",
"G  c #BFBFBF",
"H  c #7E7E7E",
"J  c #BDBDBD",
"K  c #BCBCBC",
"L  c #BBBBBB",
"P  c #BABABA",
"I  c #B9B9B9",
"U  c #B8B8B8",
"Y  c #B7B7B7",
"T  c #B6B6B6",
"R  c #B5B5B5",
"E  c #B4B4B4",
"W  c #B3B3B3",
"Q  c #B2B2B2",
"!  c #B1B1B1",
"~  c #B0B0B0",
"^  c #AFAFAF",
"/  c #AEAEAE",
"(  c #ADADAD",
")  c #ACACAC",
"_  c #ABABAB",
"`  c #AAAAAA",
"'  c #A9A9A9",
"]  c #A8A8A8",
"[  c #A7A7A7",
"{  c #A6A6A6",
"}  c #A5A5A5",
"|  c #A4A4A4",
" . c #A3A3A3",
".. c #A2A2A2",
"X. c #A1A1A1",
"o. c #A0A0A0",
"O. c #9F9F9F",
"+. c #9E9E9E",
"@. c #9D9D9D",
"#. c #9C9C9C",
"$. c #9B9B9B",
"%. c #9A9A9A",
"&. c #999999",
"*. c #989898",
"=. c #979797",
"-. c #969696",
";. c #959595",
":. c #949494",
">. c #939393",
",. c #929292",
"<. c #919191",
"1. c #909090",
"2. c #8F8F8F",
"3. c #8E8E8E",
"4. c #8D8D8D",
"5. c #8C8C8C",
"6. c #8B8B8B",
"7. c #8A8A8A",
"8. c #898989",
"9. c #888888",
"0. c #878787",
"q. c #868686",
"w. c #858585",
"e. c #848484",
"r. c #838383",
"t. c #828282",
"y. c #818181",
"u. c #808080",
"i. c #7F7F7F",
"p. c #7E7E7E",
"a. c #7E7E7E49",
"s. c #7C7C7C",
"d. c #7B7B7B",
"f. c #7E7E7E48",
"g. c #797979",
"h. c #7E7E7E47",
"j. c #777777",
"k. c #767676",
"l. c #7E7E7E46",
"z. c #747474",
"x. c #7E7E7E45",
"c. c #727272",
"v. c #717171",
"b. c #7E7E7E44",
"n. c #6F6F6F",
"m. c #7E7E7E43",
"M. c #6D6D6D",
"N. c #6C6C6C",
"B. c #7E7E7E42",
"V. c #6A6A6A",
"C. c #696969",
"Z. c #686868",
"A. c #676767",
"S. c #7E7E7E40",
"D. c #656565",
"F. c #646464",
"G. c #7E7E7E39",
"H. c #626262",
"J. c #7E7E7E38",
"K. c #606060",
"L. c #5F5F5F",
"P. c #7E7E7E37",
"I. c #5D5D5D",
"U. c #7E7E7E36",
"Y. c #5B5B5B",
"T. c #5A5A5A",
"R. c #7E7E7E35",
"E. c #585858",
"W. c #7E7E7E34",
"Q. c #565656",
"!. c #555555",
"~. c #7E7E7E33",
"^. c #535353",
"/. c #7E7E7E32",
"(. c #515151",
"). c #505050",
"_. c #7E7E7E31",
"`. c #4E4E4E",
"'. c #7E7E7E30",
"]. c #4C4C4C",
"[. c #4B4B4B",
"{. c #7E7E7E29",
"}. c #494949",
"|. c #484848",
" X c #7E7E7E28",
".X c #464646",
"XX c #7E7E7E27",
"oX c #444444",
"OX c #434343",
"+X c #7E7E7E26",
"@X c #414141",
"#X c #7E7E7E25",
"$X c #3F3F3F",
"%X c #3E3E3E",
"&X c #7E7E7E24",
"*X c #3C3C3C",
"=X c #7E7E7E23",
"-X c #3A3A3A",
";X c #393939",
":X c #7E7E7E22",
">X c #373737",
",X c #7E7E7E21",
"<X c #353535",
"1X c #343434",
"2X c #7E7E7E20",
"3X c #323232",
"4X c #313131",
"5X c #7E7E7E19",
"6X c #2F2F2F",
"7X c #7E7E7E18",
"8X c #2D2D2D",
"9X c #2C2C2C",
"0X c #7E7E7E17",
"qX c #2A2A2A",
"wX c #7E7E7E16",
"eX c #282828",
"rX c #272727",
"tX c #7E7E7E15",
"yX c #252525",
"uX c #7E7E7E14",
"iX c #232323",
"pX c #222222",
"aX c #7E7E7E13",
"sX c #202020",
"dX c #7E7E7E12",
"fX c #1E1E1E",
"gX c #1D1D1D",
"hX c #7E7E7E11",
"jX c #1B1B1B",
"kX c #7E7E7E10",
"lX c #191919",
"zX c #181818",
"xX c #7E7E7E9",
"cX c #161616",
"vX c #151515",
"bX c #7E7E7E8",
"nX c #131313",
"mX c #7E7E7E7",
"MX c #111111",
"NX c #101010",
"BX c #7E7E7E6",
"VX c #0E0E0E",
"CX c #7E7E7E5",
"ZX c #0C0C0C",
"AX c #0B0B0B",
"SX c #7E7E7E4",
"DX c #090909",
"FX c #7E7E7E3",
"GX c #070707",
"HX c #060606",
"JX c #7E7E7E2",
"KX c #040404",
"LX c #7E7E7E1",
"PX c #020202",
"IX c #010101",
"UX c #F6D55C",
/* pixels */
"                                                                      m nXUXUXUXUXUXUXPX]                         ",
"                                                                    H CXUXUXUXUXUXUXUX=.                          ",
"                                                                  ~ GXUX].&   U JXUXw.                            ",
"                                                                ..KXUXF.o   B AXUXUXLXLXLXLXJX[                   ",
"                                                              <.IXUXa.    h mXUXUXUXUXUXUXUX<.                    ",
"                                                            u.UXLX*.    e jXUXUXUXUXUXUXUXa.                      ",
"                                                        . m.UXDX~     3 yXUXUXUXUXUXUXUXZ.                        ",
"                                                        V.UXmXC     ; 3XUXUXUXUXUXUXUXQ.X                         ",
"                                                        vXUXz       $.Y.Y.Y.Y.%XUXUXXX@                           ",
"                                                      ; UXCX                  >.UXZX*. .{                         ",
"                                                      c UX5X                  n.UXUXUXUXfX                        ",
"                                                      _ UX^.                  [.UXUXUXUX#X                        ",
"                                                      0.UXj.                  rXUXUXUXUXG.                        ",
"                                                      F.UX%.                X HXUXUXUXUXq.                        ",
"                                                      @XUXJ                 t UXUXUXUXUX'                         ",
"                                                      fXUXw                 P UXUXUXUXUXn                         ",
"                                                    # PXHXX                 -.UXUXUXUXUX,                         ",
"                                                    d UXrX                  v.UXUXUXUXMX                          ",
"                                                    E UX[.                  '.UXUXUXUX1X                          ",
"                                                    <.UXm.                  wXUXUXUXUXQ.                          ",
"                        ;XUXUXUXUXUXUXUXUXUXUXUXUXUXUXUXUXUXUXUXUXUXUXUXUXUXUXUXUXUXUXUXZXyXOX<.6                 ",
"                        cXUXUXUXUXUXUXUXUXUXUXUXUXUXUXUXUXUXUXUXUXUXUXUXUXUXUXUXUXUXUXUXUXUXUXUXHX6..             ",
"                      = UXIX#                                                           & r }  XUXUXT.            ",
"                      z UXgX                                                                    ..LXUX:.          ",
"                      ) UX@X                                                                      e.UXLXv.+       ",
"                      8.UXD.                                                                      $ xXUXUX|.O     ",
"                      S.UX8.                                                                        C.UXUXUXp.    ",
"                      OXUX)                                                                         _ UXUXUXDX3   ",
"                      dXUXz           h UXUXUXUXUXUXUXUXUXUXUXUXUXUXUXUXUXUXUXUXUXUXJX<Xa           g UXUXUXUX1.  ",
"                    @ PXUX*           ~ UXUXUXUXUXUXUXUXUXUXUXUXUXUXUXUXUXUXUXUXUXUXUXUXG.          1 UXUXUXUX[.  ",
"                    a UXzX            6.UXUXUXUXUXUXUXUXUXUXUXUXUXUXUXUXUXUXUXUXUXUXUXUXI.          @ UXUXUXUXjX  ",
"                    T UX*X            S.UXUXUXUXUXUXUXUXUXUXUXUXUXUXUXUXUXUXUXUXUXUXUXUXu.          # UXUXUXUXIXO ",
"                    ,.UXL.            +XUXUXUXUXUXUXUXUXUXUXUXUXUXUXUXUXUXUXUXUXUXUXUXUX|           2 UXUXUXUXUX> ",
"                    n.UXr.            gXUXUXUXUXf.                                  sXUXN           v UXUXUXUXUX2 ",
"                    ].UX[           $ IXUXUXUXUX@.                                + LXUX1           _ UXUXUXUXUX% ",
"                    wXUXn           j UXUXUXUXUXD                                 s UXNX            0.UXUXUXUXJX  ",
"                  . FXUX>           ^ UXUXUXUXUX8                                 E UX1X            G.UXUXUXUXyX  ",
"                  q UXmX            7.UXUXUXUXSX.                                 1.UXW.            #XUXUXUXUX}.  ",
"                  G UX,X            D.UXUXUXUX9X                                  N.UXd.            hXUXUXUXUXM.  ",
"                  #.UXT.            #XUXUXUXUX).                                  |.UXO.          $ IXUXUXUXUX1.  ",
"                  h.UXp.            hXUXUXUXUXz.                                  uXUXA           h UXUXUXUXUXE   ",
"                  !.UX..          % IXUXUXUXUX=.                                o JXUX6           ! UXUXUXUXUXs   ",
"                  3XUXC           k UXUXUXUXUXL                                 u UXZX            4.UXUXUXUXPX@   ",
"                  BXUX4           / UXUXUXUXUXr                                 U UX6X            C.UXUXUXUXdX    ",
"                2 UXCX            8.UXUXUXUXHXX                                 :.UX/.            XXUXUXUXUXOX    ",
"                N UX4X            F.UXUXUXUXtX                                  b.UXk.            aXUXUXUXUXA.    ",
"                } UX~.            `.UXUXUXUX{.                                  ].UX%.          O LXUXUXUXUX6.    ",
"                t.UXh.            N.UXUXUXUXm.                                  wXUXH           p UXUXUXUXUX/     ",
"                P.UX#.            Z PXUXUXUXUXUXUXUXUXUXUXUXUXUXUXUXUXUXUXUXUXUXUXUXq           T UXUXUXUXUXk     ",
"                *XUXF               ! :XBXUXUXUXUXUXUXUXUXUXUXUXUXUXUXUXUXUXUXUXUXFX.           ,.UXUXUXUXIX&     ",
"                gXUXe                                                                           n.UXUXUXUXkX      ",
"              X KXPXO                                                                           [.UXUXUXUX&X      ",
"              - UXVX                                                                            rXUXUXUXUXJ.      ",
"              3 UXbX                                                                          X GXUXUXUXUXw.      ",
"              > UXDX                                                                          e UXUXUXUXUX'       ",
"              O PXUX&                                                                         K UXUXUXUXUXb       ",
"                hXUXN                                                                         *.UXUXUXUXUX:       ",
"                [.UX9.                                                                        z.UXUXUXUXbX        ",
"                4.UXeXX                                                                       (.UXUXUXUX:X        ",
"                7 JXUX<.                                                                      8XUXUXUXUXY.        ",
"                  N.UXKX .                                                                    AXUXUXUXUXi.        ",
"                  = 0XUXUXXX{ w $                                                           8 UXUXUXUXUX .        ",
"                    4 -XUXUXUXUXUXUXUXUXUXUXUXUXUXUXUXUXUXUXUXUXUXUXUXUXUXUXUXUXr           S UXUXUXUXUXB         ",
"                      X Z.UXUXUXUXUXUXUXUXUXUXUXUXUXUXUXUXUXUXUXUXUXUXUXUXUXUXGXX           +.UXUXUXUXUX3         ",
"                        $ 6XUXUXUXUXUXUXUXUXUXUXUXUXUXUXUXUXUXUXUXUXUXUXUXUXUX9X            f.UXUXUXUXVX          ",
"                          , @XUXUXUXUXUXUXUXUXUXUXUXUXUXUXUXUXUXUXUXUXUXUXUXUXk.            W.UXUXUXUX3X          ",
"                            . ` -XKXUXUXUXUXUXUXUXUXUXUXUXUXUXUXUXUXUXUXUXUXFXw             9XUXUXUXUXQ.          ",
"                                  * 2XUXUXUXUXUXUXUXUXUXUXUXUXUXUXUXUXUXUXUX=.            @ JXUXUXUXUXf.          ",
"                                    dXUXUXUXUXUXUXUXUXUXUXUXUXUXUXUXUXFX:X!               x UXUXUXUXUX@.          ",
"                                  + LXUXt                                                 8.UXUXUXUXUXV           ",
"                                  i UXHXo                                                 *XUXUXUXUXPX&           ",
"                                  I UXeX                                                t LXUXUXUXUXwX            ",
"                                  -.UX'.                                                B.UXUXUXUXUXL.            ",
"                                  z.UXc.                                              i DXUXUXUXUXUX(             ",
"                                  /.UX=.                                            o :XUXUXUXUXUXFX*             ",
"                                  5XUXK                                           O W.UXUXUXUXUXUXR.              ",
"                                  BXUXw                                         u OXUXUXUXUXUXUXUXl               ",
"                                1 UXGXX                                 # e Q K.GXUXUXUXUXUXUXUX(.                ",
"                                m UXUXUXUXUXUXUXUXUXUXUXUXUXUXUXUXUXUXUXUXUXUXUXUXUXUXUXUXUXUXvX6                 ",
"                                ] UXUXUXUXUXUXUXUXUXUXUXUXUXUXUXUXUXUXUXUXUXUXUXUXUXUXUXUXUXHXY                   ",
"                                      , UXUXUXUXUXUXUXUXUXUXUXUXUXUXUXUXUXUXUXUXUXUXUXUXUXZXP                     ",
"                                      n UXUXUXUXUXUXUXUXUXUXUXUXUXUXUXUXUXUXUXUXUXUXUXUX'.p                       ",
"                                      ] UXUXUXUXUXUXUXUXUXUXUXUXUXUXUXUXUXUXUXGXgX;Xa.v                           ",
"                                                                                                                  ",
"                                                                                                                  ",
"                                                                                                                  ",
"                                                                                                                  ",
"                                                                                                                  ",
"                                                                                                                  ",
"                                                                                                                  ",
"                                                                                                                  ",
"                                                                                                                  ",
"                                                                                                                  ",
"                                                                                                                  ",
"                                                                                                                  ",
"                                                                                                                  ",
"                                                                                                                  ",
"                                                                                                                  ",
"                                                                                                                  ",
"                                                                                                                  ",
"                                                                                                                  ",
"                                                                                                                  "
};
